<?xml version="1.0" encoding="UTF-8" standalone="no"?>
<!DOCTYPE svg PUBLIC "-//W3C//DTD SVG 1.1//EN"
 "http://www.w3.org/Graphics/SVG/1.1/DTD/svg11.dtd">
<!-- Generated by graphviz version 13.1.0 (20250701.0955)
 -->
<!-- Pages: 1 -->
<svg width="1145pt" height="746pt"
 viewBox="0.00 0.00 1145.00 746.00" xmlns="http://www.w3.org/2000/svg" xmlns:xlink="http://www.w3.org/1999/xlink">
<g id="graph0" class="graph" transform="scale(1 1) rotate(0) translate(4 741.5)">
<polygon fill="white" stroke="none" points="-4,4 -4,-741.5 1141,-741.5 1141,4 -4,4"/>
<g id="clust1" class="cluster">
<title>cluster_function_0</title>
<polygon fill="lightgrey" stroke="lightgrey" points="8,-374.38 8,-729.5 420,-729.5 420,-374.38 8,-374.38"/>
<text xml:space="preserve" text-anchor="middle" x="214" y="-712.2" font-family="Times,serif" font-size="14.00">Function 0</text>
</g>
<g id="clust2" class="cluster">
<title>cluster_function_1</title>
<polygon fill="lightgrey" stroke="lightgrey" points="428,-8 428,-677.75 1129,-677.75 1129,-8 428,-8"/>
<text xml:space="preserve" text-anchor="middle" x="778.5" y="-660.45" font-family="Times,serif" font-size="14.00">Function 1</text>
</g>
<!-- f0_n0 -->
<g id="node1" class="node">
<title>f0_n0</title>
<polygon fill="none" stroke="black" points="411.75,-697 16.25,-697 16.25,-482 411.75,-482 411.75,-697"/>
<text xml:space="preserve" text-anchor="start" x="24.25" y="-679.7" font-family="monospace" font-size="14.00">Block 0 (PC 0&#45;11)</text>
<text xml:space="preserve" text-anchor="start" x="24.25" y="-662.45" font-family="monospace" font-size="14.00"> &#160;0: DeclareGlobalVar &#160;&quot;main&quot;</text>
<text xml:space="preserve" text-anchor="start" x="24.25" y="-645.2" font-family="monospace" font-size="14.00"> &#160;1: CreateEnvironment r1</text>
<text xml:space="preserve" text-anchor="start" x="24.25" y="-627.95" font-family="monospace" font-size="14.00"> &#160;2: CreateClosure &#160;&#160;&#160;&#160;r2, r1, Function&lt;main&gt;1</text>
<text xml:space="preserve" text-anchor="start" x="24.25" y="-610.7" font-family="monospace" font-size="14.00"> &#160;3: GetGlobalObject &#160;&#160;r0</text>
<text xml:space="preserve" text-anchor="start" x="24.25" y="-593.45" font-family="monospace" font-size="14.00"> &#160;4: PutById &#160;&#160;&#160;&#160;&#160;&#160;&#160;&#160;&#160;&#160;r0, r2, 1, &quot;main&quot;</text>
<text xml:space="preserve" text-anchor="start" x="24.25" y="-576.2" font-family="monospace" font-size="14.00"> &#160;5: NewArrayWithBuffer r0, 360, 360, 0</text>
<text xml:space="preserve" text-anchor="start" x="24.25" y="-558.95" font-family="monospace" font-size="14.00"> &#160;6: StoreToEnvironment r1, 0, r0</text>
<text xml:space="preserve" text-anchor="start" x="24.25" y="-541.7" font-family="monospace" font-size="14.00"> &#160;7: NewObjectWithBuffer r0, 12, 12, 0, 0</text>
<text xml:space="preserve" text-anchor="start" x="24.25" y="-524.45" font-family="monospace" font-size="14.00"> &#160;8: StoreToEnvironment r1, 1, r0</text>
<text xml:space="preserve" text-anchor="start" x="24.25" y="-507.2" font-family="monospace" font-size="14.00"> &#160;9: LoadConstUndefined r0</text>
<text xml:space="preserve" text-anchor="start" x="24.25" y="-489.95" font-family="monospace" font-size="14.00"> &#160;10: Ret &#160;&#160;&#160;&#160;&#160;&#160;&#160;&#160;&#160;&#160;&#160;&#160;&#160;&#160;r0</text>
</g>
<!-- f0_n1 -->
<g id="node2" class="node">
<title>f0_n1</title>
<polygon fill="none" stroke="black" points="241,-418.38 187,-418.38 187,-382.38 241,-382.38 241,-418.38"/>
<text xml:space="preserve" text-anchor="middle" x="214" y="-395.7" font-family="monospace" font-size="14.00">EXIT</text>
</g>
<!-- f0_n0&#45;&gt;f0_n1 -->
<g id="edge1" class="edge">
<title>f0_n0&#45;&gt;f0_n1</title>
<path fill="none" stroke="black" d="M214,-481.55C214,-462.55 214,-444.31 214,-430.03"/>
<polygon fill="black" stroke="black" points="217.5,-430.11 214,-420.11 210.5,-430.11 217.5,-430.11"/>
<text xml:space="preserve" text-anchor="middle" x="237.25" y="-450.7" font-family="Arial" font-size="14.00">Uncond</text>
</g>
<!-- f1_n0 -->
<g id="node3" class="node">
<title>f1_n0</title>
<polygon fill="none" stroke="black" points="972.75,-645.25 643.25,-645.25 643.25,-533.75 972.75,-533.75 972.75,-645.25"/>
<text xml:space="preserve" text-anchor="start" x="651.25" y="-627.95" font-family="monospace" font-size="14.00">Block 0 (PC 0&#45;5)</text>
<text xml:space="preserve" text-anchor="start" x="651.25" y="-610.7" font-family="monospace" font-size="14.00"> &#160;0: LoadConstString &#160;&#160;r6, &quot;_modified&quot;</text>
<text xml:space="preserve" text-anchor="start" x="651.25" y="-593.45" font-family="monospace" font-size="14.00"> &#160;1: GetEnvironment &#160;&#160;&#160;r0, 0</text>
<text xml:space="preserve" text-anchor="start" x="651.25" y="-576.2" font-family="monospace" font-size="14.00"> &#160;2: LoadFromEnvironment r4, r0, 1</text>
<text xml:space="preserve" text-anchor="start" x="651.25" y="-558.95" font-family="monospace" font-size="14.00"> &#160;3: GetPNameList &#160;&#160;&#160;&#160;&#160;r5, r4, r3, r2</text>
<text xml:space="preserve" text-anchor="start" x="651.25" y="-541.7" font-family="monospace" font-size="14.00"> &#160;4: JmpUndefined &#160;&#160;&#160;&#160;&#160;L1, r5</text>
</g>
<!-- f1_n1 -->
<g id="node4" class="node">
<title>f1_n1</title>
<polygon fill="none" stroke="black" points="861.12,-430.25 506.88,-430.25 506.88,-370.5 861.12,-370.5 861.12,-430.25"/>
<text xml:space="preserve" text-anchor="start" x="514.88" y="-412.95" font-family="monospace" font-size="14.00">Block 1 (PC 5&#45;7) [L2]</text>
<text xml:space="preserve" text-anchor="start" x="514.88" y="-395.7" font-family="monospace" font-size="14.00"> &#160;0: GetNextPName &#160;&#160;&#160;&#160;&#160;r1, r5, r4, r3, r2</text>
<text xml:space="preserve" text-anchor="start" x="514.88" y="-378.45" font-family="monospace" font-size="14.00"> &#160;1: JmpUndefined &#160;&#160;&#160;&#160;&#160;L1, r1</text>
</g>
<!-- f1_n0&#45;&gt;f1_n1 -->
<g id="edge3" class="edge">
<title>f1_n0&#45;&gt;f1_n1</title>
<path fill="none" stroke="black" d="M771.47,-533.37C751.62,-503.41 727.55,-467.09 709.69,-440.14"/>
<polygon fill="black" stroke="black" points="712.69,-438.33 704.25,-431.93 706.85,-442.2 712.69,-438.33"/>
<text xml:space="preserve" text-anchor="middle" x="740.61" y="-450.7" font-family="Arial" font-size="14.00">False</text>
</g>
<!-- f1_n3 -->
<g id="node6" class="node">
<title>f1_n3</title>
<polygon fill="none" stroke="black" points="1121.38,-318.75 750.62,-318.75 750.62,-103.75 1121.38,-103.75 1121.38,-318.75"/>
<text xml:space="preserve" text-anchor="start" x="758.62" y="-301.45" font-family="monospace" font-size="14.00">Block 3 (PC 13&#45;24) [L1]</text>
<text xml:space="preserve" text-anchor="start" x="758.62" y="-284.2" font-family="monospace" font-size="14.00"> &#160;0: GetGlobalObject &#160;&#160;r1</text>
<text xml:space="preserve" text-anchor="start" x="758.62" y="-266.95" font-family="monospace" font-size="14.00"> &#160;1: TryGetById &#160;&#160;&#160;&#160;&#160;&#160;&#160;r4, r1, 1, &quot;console&quot;</text>
<text xml:space="preserve" text-anchor="start" x="758.62" y="-249.7" font-family="monospace" font-size="14.00"> &#160;2: GetByIdShort &#160;&#160;&#160;&#160;&#160;r3, r4, 2, &quot;log&quot;</text>
<text xml:space="preserve" text-anchor="start" x="758.62" y="-232.45" font-family="monospace" font-size="14.00"> &#160;3: LoadFromEnvironment r2, r0, 0</text>
<text xml:space="preserve" text-anchor="start" x="758.62" y="-215.2" font-family="monospace" font-size="14.00"> &#160;4: Call2 &#160;&#160;&#160;&#160;&#160;&#160;&#160;&#160;&#160;&#160;&#160;&#160;r2, r3, r4, r2</text>
<text xml:space="preserve" text-anchor="start" x="758.62" y="-197.95" font-family="monospace" font-size="14.00"> &#160;5: TryGetById &#160;&#160;&#160;&#160;&#160;&#160;&#160;r2, r1, 1, &quot;console&quot;</text>
<text xml:space="preserve" text-anchor="start" x="758.62" y="-180.7" font-family="monospace" font-size="14.00"> &#160;6: GetByIdShort &#160;&#160;&#160;&#160;&#160;r1, r2, 2, &quot;log&quot;</text>
<text xml:space="preserve" text-anchor="start" x="758.62" y="-163.45" font-family="monospace" font-size="14.00"> &#160;7: LoadFromEnvironment r0, r0, 1</text>
<text xml:space="preserve" text-anchor="start" x="758.62" y="-146.2" font-family="monospace" font-size="14.00"> &#160;8: Call2 &#160;&#160;&#160;&#160;&#160;&#160;&#160;&#160;&#160;&#160;&#160;&#160;r0, r1, r2, r0</text>
<text xml:space="preserve" text-anchor="start" x="758.62" y="-128.95" font-family="monospace" font-size="14.00"> &#160;9: LoadConstUndefined r0</text>
<text xml:space="preserve" text-anchor="start" x="758.62" y="-111.7" font-family="monospace" font-size="14.00"> &#160;10: Ret &#160;&#160;&#160;&#160;&#160;&#160;&#160;&#160;&#160;&#160;&#160;&#160;&#160;&#160;r0</text>
</g>
<!-- f1_n0&#45;&gt;f1_n3 -->
<g id="edge2" class="edge">
<title>f1_n0&#45;&gt;f1_n3</title>
<path fill="none" stroke="black" d="M830.75,-533.61C842.97,-503.34 857.97,-464.96 870,-430.25 881.17,-398.02 892.31,-362.77 902.16,-330.18"/>
<polygon fill="black" stroke="black" points="905.49,-331.27 905.02,-320.69 898.79,-329.26 905.49,-331.27"/>
<text xml:space="preserve" text-anchor="middle" x="903.47" y="-394.95" font-family="Arial" font-size="14.00">True</text>
</g>
<!-- f1_n2 -->
<g id="node5" class="node">
<title>f1_n2</title>
<polygon fill="none" stroke="black" points="732.25,-275.62 435.75,-275.62 435.75,-146.88 732.25,-146.88 732.25,-275.62"/>
<text xml:space="preserve" text-anchor="start" x="443.75" y="-258.32" font-family="monospace" font-size="14.00">Block 2 (PC 7&#45;13)</text>
<text xml:space="preserve" text-anchor="start" x="443.75" y="-241.07" font-family="monospace" font-size="14.00"> &#160;0: Mov &#160;&#160;&#160;&#160;&#160;&#160;&#160;&#160;&#160;&#160;&#160;&#160;&#160;&#160;r9, r1</text>
<text xml:space="preserve" text-anchor="start" x="443.75" y="-223.82" font-family="monospace" font-size="14.00"> &#160;1: LoadFromEnvironment r8, r0, 1</text>
<text xml:space="preserve" text-anchor="start" x="443.75" y="-206.57" font-family="monospace" font-size="14.00"> &#160;2: GetByVal &#160;&#160;&#160;&#160;&#160;&#160;&#160;&#160;&#160;r7, r8, r9</text>
<text xml:space="preserve" text-anchor="start" x="443.75" y="-189.32" font-family="monospace" font-size="14.00"> &#160;3: Add &#160;&#160;&#160;&#160;&#160;&#160;&#160;&#160;&#160;&#160;&#160;&#160;&#160;&#160;r7, r7, r6</text>
<text xml:space="preserve" text-anchor="start" x="443.75" y="-172.07" font-family="monospace" font-size="14.00"> &#160;4: PutByVal &#160;&#160;&#160;&#160;&#160;&#160;&#160;&#160;&#160;r8, r9, r7</text>
<text xml:space="preserve" text-anchor="start" x="443.75" y="-154.82" font-family="monospace" font-size="14.00"> &#160;5: Jmp &#160;&#160;&#160;&#160;&#160;&#160;&#160;&#160;&#160;&#160;&#160;&#160;&#160;&#160;L2</text>
</g>
<!-- f1_n1&#45;&gt;f1_n2 -->
<g id="edge5" class="edge">
<title>f1_n1&#45;&gt;f1_n2</title>
<path fill="none" stroke="black" d="M668.38,-370.14C656.33,-347.6 639.13,-315.42 623.4,-285.98"/>
<polygon fill="black" stroke="black" points="626.65,-284.63 618.85,-277.46 620.47,-287.93 626.65,-284.63"/>
<text xml:space="preserve" text-anchor="middle" x="673.68" y="-339.2" font-family="Arial" font-size="14.00">False</text>
</g>
<!-- f1_n1&#45;&gt;f1_n3 -->
<g id="edge4" class="edge">
<title>f1_n1&#45;&gt;f1_n3</title>
<path fill="none" stroke="black" d="M723.38,-370.14C740.16,-357.67 760.93,-342.25 782.85,-325.97"/>
<polygon fill="black" stroke="black" points="784.81,-328.88 790.75,-320.11 780.64,-323.26 784.81,-328.88"/>
<text xml:space="preserve" text-anchor="middle" x="779.39" y="-339.2" font-family="Arial" font-size="14.00">True</text>
</g>
<!-- f1_n2&#45;&gt;f1_n1 -->
<g id="edge6" class="edge">
<title>f1_n2&#45;&gt;f1_n1</title>
<path fill="none" stroke="black" d="M579.98,-275.88C581.26,-301.54 586.64,-330.26 601.5,-352.5 603.88,-356.07 606.63,-359.39 609.65,-362.49"/>
<polygon fill="black" stroke="black" points="607.3,-365.08 617.08,-369.15 611.97,-359.87 607.3,-365.08"/>
<text xml:space="preserve" text-anchor="middle" x="624.75" y="-339.2" font-family="Arial" font-size="14.00">Uncond</text>
</g>
<!-- f1_n4 -->
<g id="node7" class="node">
<title>f1_n4</title>
<polygon fill="none" stroke="black" points="963,-52 909,-52 909,-16 963,-16 963,-52"/>
<text xml:space="preserve" text-anchor="middle" x="936" y="-29.32" font-family="monospace" font-size="14.00">EXIT</text>
</g>
<!-- f1_n3&#45;&gt;f1_n4 -->
<g id="edge7" class="edge">
<title>f1_n3&#45;&gt;f1_n4</title>
<path fill="none" stroke="black" d="M936,-103.26C936,-88.71 936,-74.91 936,-63.58"/>
<polygon fill="black" stroke="black" points="939.5,-63.84 936,-53.84 932.5,-63.84 939.5,-63.84"/>
<text xml:space="preserve" text-anchor="middle" x="959.25" y="-72.45" font-family="Arial" font-size="14.00">Uncond</text>
</g>
</g>
</svg>
