<?xml version="1.0" encoding="UTF-8" standalone="no"?>
<!DOCTYPE svg PUBLIC "-//W3C//DTD SVG 1.1//EN"
 "http://www.w3.org/Graphics/SVG/1.1/DTD/svg11.dtd">
<!-- Generated by graphviz version 13.1.0 (20250701.0955)
 -->
<!-- Pages: 1 -->
<svg width="1145pt" height="805pt"
 viewBox="0.00 0.00 1145.00 805.00" xmlns="http://www.w3.org/2000/svg" xmlns:xlink="http://www.w3.org/1999/xlink">
<g id="graph0" class="graph" transform="scale(1 1) rotate(0) translate(4 801.25)">
<polygon fill="white" stroke="none" points="-4,4 -4,-801.25 1141,-801.25 1141,4 -4,4"/>
<g id="clust1" class="cluster">
<title>cluster_function_0</title>
<polygon fill="lightgrey" stroke="lightgrey" points="8,-383 8,-768 420,-768 420,-383 8,-383"/>
<text xml:space="preserve" text-anchor="middle" x="214" y="-750.7" font-family="Times,serif" font-size="14.00">Function 0</text>
</g>
<g id="clust2" class="cluster">
<title>cluster_function_1</title>
<polygon fill="lightgrey" stroke="lightgrey" points="428,-8 428,-789.25 1129,-789.25 1129,-8 428,-8"/>
<text xml:space="preserve" text-anchor="middle" x="778.5" y="-771.95" font-family="Times,serif" font-size="14.00">Function 1</text>
</g>
<!-- f0_n0 -->
<g id="node1" class="node">
<title>f0_n0</title>
<polygon fill="none" stroke="black" points="411.75,-735.5 16.25,-735.5 16.25,-520.5 411.75,-520.5 411.75,-735.5"/>
<text xml:space="preserve" text-anchor="start" x="24.25" y="-718.2" font-family="monospace" font-size="14.00">Block 0 (PC 0&#45;11)</text>
<text xml:space="preserve" text-anchor="start" x="24.25" y="-700.95" font-family="monospace" font-size="14.00"> &#160;0: DeclareGlobalVar &#160;&quot;main&quot;</text>
<text xml:space="preserve" text-anchor="start" x="24.25" y="-683.7" font-family="monospace" font-size="14.00"> &#160;1: CreateEnvironment r1</text>
<text xml:space="preserve" text-anchor="start" x="24.25" y="-666.45" font-family="monospace" font-size="14.00"> &#160;2: CreateClosure &#160;&#160;&#160;&#160;r2, r1, Function&lt;main&gt;1</text>
<text xml:space="preserve" text-anchor="start" x="24.25" y="-649.2" font-family="monospace" font-size="14.00"> &#160;3: GetGlobalObject &#160;&#160;r0</text>
<text xml:space="preserve" text-anchor="start" x="24.25" y="-631.95" font-family="monospace" font-size="14.00"> &#160;4: PutById &#160;&#160;&#160;&#160;&#160;&#160;&#160;&#160;&#160;&#160;r0, r2, 1, &quot;main&quot;</text>
<text xml:space="preserve" text-anchor="start" x="24.25" y="-614.7" font-family="monospace" font-size="14.00"> &#160;5: NewArrayWithBuffer r0, 360, 360, 0</text>
<text xml:space="preserve" text-anchor="start" x="24.25" y="-597.45" font-family="monospace" font-size="14.00"> &#160;6: StoreToEnvironment r1, 0, r0</text>
<text xml:space="preserve" text-anchor="start" x="24.25" y="-580.2" font-family="monospace" font-size="14.00"> &#160;7: NewObjectWithBuffer r0, 12, 12, 0, 0</text>
<text xml:space="preserve" text-anchor="start" x="24.25" y="-562.95" font-family="monospace" font-size="14.00"> &#160;8: StoreToEnvironment r1, 1, r0</text>
<text xml:space="preserve" text-anchor="start" x="24.25" y="-545.7" font-family="monospace" font-size="14.00"> &#160;9: LoadConstUndefined r0</text>
<text xml:space="preserve" text-anchor="start" x="24.25" y="-528.45" font-family="monospace" font-size="14.00"> &#160;10: Ret &#160;&#160;&#160;&#160;&#160;&#160;&#160;&#160;&#160;&#160;&#160;&#160;&#160;&#160;r0</text>
</g>
<!-- f0_n1 -->
<g id="node2" class="node">
<title>f0_n1</title>
<polygon fill="lightgray" stroke="black" points="241,-427 187,-427 187,-391 241,-391 241,-427"/>
<text xml:space="preserve" text-anchor="middle" x="214" y="-404.32" font-family="monospace" font-size="14.00">EXIT</text>
</g>
<!-- f0_n0&#45;&gt;f0_n1 -->
<g id="edge1" class="edge">
<title>f0_n0&#45;&gt;f0_n1</title>
<path fill="none" stroke="black" d="M214,-520.09C214,-490.04 214,-459.83 214,-438.68"/>
<polygon fill="black" stroke="black" points="217.5,-438.85 214,-428.85 210.5,-438.85 217.5,-438.85"/>
<text xml:space="preserve" text-anchor="middle" x="254.88" y="-467.95" font-family="Arial" font-size="14.00">Unconditional</text>
</g>
<!-- f1_n0 -->
<g id="node3" class="node">
<title>f1_n0</title>
<polygon fill="none" stroke="red" stroke-width="2" stroke-dasharray="5,2" points="779,-756.75 449.5,-628 779,-499.25 1108.5,-628 779,-756.75"/>
<text xml:space="preserve" text-anchor="start" x="501.64" y="-675.08" font-family="monospace" font-size="14.00">Block 0 (PC 0&#45;5)</text>
<text xml:space="preserve" text-anchor="start" x="501.64" y="-657.83" font-family="monospace" font-size="14.00"> &#160;0: LoadConstString &#160;&#160;r6, &quot;_modified&quot;</text>
<text xml:space="preserve" text-anchor="start" x="501.64" y="-640.58" font-family="monospace" font-size="14.00"> &#160;1: GetEnvironment &#160;&#160;&#160;r0, 0</text>
<text xml:space="preserve" text-anchor="start" x="501.64" y="-623.33" font-family="monospace" font-size="14.00"> &#160;2: LoadFromEnvironment r4, r0, 1</text>
<text xml:space="preserve" text-anchor="start" x="501.64" y="-606.08" font-family="monospace" font-size="14.00"> &#160;3: GetPNameList &#160;&#160;&#160;&#160;&#160;r5, r4, r3, r2</text>
<text xml:space="preserve" text-anchor="start" x="501.64" y="-588.83" font-family="monospace" font-size="14.00"> &#160;4: JmpUndefined &#160;&#160;&#160;&#160;&#160;L1, r5</text>
<text xml:space="preserve" text-anchor="start" x="501.64" y="-571.58" font-family="monospace" font-size="14.00">[CONDITIONAL: ELSE&#45;IF CHAIN]</text>
</g>
<!-- f1_n1 -->
<g id="node4" class="node">
<title>f1_n1</title>
<polygon fill="lightblue" stroke="red" stroke-width="3" points="871.12,-447.5 516.88,-447.5 516.88,-370.5 871.12,-370.5 871.12,-447.5"/>
<text xml:space="preserve" text-anchor="start" x="524.88" y="-430.2" font-family="monospace" font-size="14.00">Block 1 (PC 5&#45;7) [L2]</text>
<text xml:space="preserve" text-anchor="start" x="524.88" y="-412.95" font-family="monospace" font-size="14.00"> &#160;0: GetNextPName &#160;&#160;&#160;&#160;&#160;r1, r5, r4, r3, r2</text>
<text xml:space="preserve" text-anchor="start" x="524.88" y="-395.7" font-family="monospace" font-size="14.00"> &#160;1: JmpUndefined &#160;&#160;&#160;&#160;&#160;L1, r1</text>
<text xml:space="preserve" text-anchor="start" x="524.88" y="-378.45" font-family="monospace" font-size="14.00">[LOOP HEADER: While Loop]</text>
</g>
<!-- f1_n0&#45;&gt;f1_n1 -->
<g id="edge3" class="edge">
<title>f1_n0&#45;&gt;f1_n1</title>
<path fill="none" stroke="red" d="M735.26,-515.32C727.58,-495.73 719.96,-476.27 713.4,-459.52"/>
<polygon fill="red" stroke="red" points="716.7,-458.36 709.8,-450.33 710.18,-460.92 716.7,-458.36"/>
<text xml:space="preserve" text-anchor="middle" x="761.24" y="-467.95" font-family="Arial" font-size="14.00">False Branch</text>
</g>
<!-- f1_n3 -->
<g id="node6" class="node">
<title>f1_n3</title>
<polygon fill="none" stroke="black" points="1121.38,-318.75 750.62,-318.75 750.62,-103.75 1121.38,-103.75 1121.38,-318.75"/>
<text xml:space="preserve" text-anchor="start" x="758.62" y="-301.45" font-family="monospace" font-size="14.00">Block 3 (PC 13&#45;24) [L1]</text>
<text xml:space="preserve" text-anchor="start" x="758.62" y="-284.2" font-family="monospace" font-size="14.00"> &#160;0: GetGlobalObject &#160;&#160;r1</text>
<text xml:space="preserve" text-anchor="start" x="758.62" y="-266.95" font-family="monospace" font-size="14.00"> &#160;1: TryGetById &#160;&#160;&#160;&#160;&#160;&#160;&#160;r4, r1, 1, &quot;console&quot;</text>
<text xml:space="preserve" text-anchor="start" x="758.62" y="-249.7" font-family="monospace" font-size="14.00"> &#160;2: GetByIdShort &#160;&#160;&#160;&#160;&#160;r3, r4, 2, &quot;log&quot;</text>
<text xml:space="preserve" text-anchor="start" x="758.62" y="-232.45" font-family="monospace" font-size="14.00"> &#160;3: LoadFromEnvironment r2, r0, 0</text>
<text xml:space="preserve" text-anchor="start" x="758.62" y="-215.2" font-family="monospace" font-size="14.00"> &#160;4: Call2 &#160;&#160;&#160;&#160;&#160;&#160;&#160;&#160;&#160;&#160;&#160;&#160;r2, r3, r4, r2</text>
<text xml:space="preserve" text-anchor="start" x="758.62" y="-197.95" font-family="monospace" font-size="14.00"> &#160;5: TryGetById &#160;&#160;&#160;&#160;&#160;&#160;&#160;r2, r1, 1, &quot;console&quot;</text>
<text xml:space="preserve" text-anchor="start" x="758.62" y="-180.7" font-family="monospace" font-size="14.00"> &#160;6: GetByIdShort &#160;&#160;&#160;&#160;&#160;r1, r2, 2, &quot;log&quot;</text>
<text xml:space="preserve" text-anchor="start" x="758.62" y="-163.45" font-family="monospace" font-size="14.00"> &#160;7: LoadFromEnvironment r0, r0, 1</text>
<text xml:space="preserve" text-anchor="start" x="758.62" y="-146.2" font-family="monospace" font-size="14.00"> &#160;8: Call2 &#160;&#160;&#160;&#160;&#160;&#160;&#160;&#160;&#160;&#160;&#160;&#160;r0, r1, r2, r0</text>
<text xml:space="preserve" text-anchor="start" x="758.62" y="-128.95" font-family="monospace" font-size="14.00"> &#160;9: LoadConstUndefined r0</text>
<text xml:space="preserve" text-anchor="start" x="758.62" y="-111.7" font-family="monospace" font-size="14.00"> &#160;10: Ret &#160;&#160;&#160;&#160;&#160;&#160;&#160;&#160;&#160;&#160;&#160;&#160;&#160;&#160;r0</text>
</g>
<!-- f1_n0&#45;&gt;f1_n3 -->
<g id="edge2" class="edge">
<title>f1_n0&#45;&gt;f1_n3</title>
<path fill="none" stroke="green" d="M843.63,-523.58C857,-499.25 870.03,-472.97 880,-447.5 894.56,-410.32 906.02,-368.29 914.69,-330.15"/>
<polygon fill="green" stroke="green" points="918.09,-330.98 916.85,-320.46 911.26,-329.46 918.09,-330.98"/>
<text xml:space="preserve" text-anchor="middle" x="940.97" y="-403.57" font-family="Arial" font-size="14.00">True Branch</text>
</g>
<!-- f1_n2 -->
<g id="node5" class="node">
<title>f1_n2</title>
<polygon fill="lightblue" stroke="black" points="732.25,-284.25 435.75,-284.25 435.75,-138.25 732.25,-138.25 732.25,-284.25"/>
<text xml:space="preserve" text-anchor="start" x="443.75" y="-266.95" font-family="monospace" font-size="14.00">Block 2 (PC 7&#45;13)</text>
<text xml:space="preserve" text-anchor="start" x="443.75" y="-249.7" font-family="monospace" font-size="14.00"> &#160;0: Mov &#160;&#160;&#160;&#160;&#160;&#160;&#160;&#160;&#160;&#160;&#160;&#160;&#160;&#160;r9, r1</text>
<text xml:space="preserve" text-anchor="start" x="443.75" y="-232.45" font-family="monospace" font-size="14.00"> &#160;1: LoadFromEnvironment r8, r0, 1</text>
<text xml:space="preserve" text-anchor="start" x="443.75" y="-215.2" font-family="monospace" font-size="14.00"> &#160;2: GetByVal &#160;&#160;&#160;&#160;&#160;&#160;&#160;&#160;&#160;r7, r8, r9</text>
<text xml:space="preserve" text-anchor="start" x="443.75" y="-197.95" font-family="monospace" font-size="14.00"> &#160;3: Add &#160;&#160;&#160;&#160;&#160;&#160;&#160;&#160;&#160;&#160;&#160;&#160;&#160;&#160;r7, r7, r6</text>
<text xml:space="preserve" text-anchor="start" x="443.75" y="-180.7" font-family="monospace" font-size="14.00"> &#160;4: PutByVal &#160;&#160;&#160;&#160;&#160;&#160;&#160;&#160;&#160;r8, r9, r7</text>
<text xml:space="preserve" text-anchor="start" x="443.75" y="-163.45" font-family="monospace" font-size="14.00"> &#160;5: Jmp &#160;&#160;&#160;&#160;&#160;&#160;&#160;&#160;&#160;&#160;&#160;&#160;&#160;&#160;L2</text>
<text xml:space="preserve" text-anchor="start" x="443.75" y="-146.2" font-family="monospace" font-size="14.00">[LOOP BODY: While Loop]</text>
</g>
<!-- f1_n1&#45;&gt;f1_n2 -->
<g id="edge5" class="edge">
<title>f1_n1&#45;&gt;f1_n2</title>
<path fill="none" stroke="red" d="M675.7,-369.23C670.49,-358.61 664.68,-347.15 659,-336.75 651.44,-322.89 643.1,-308.37 634.8,-294.34"/>
<polygon fill="red" stroke="red" points="637.97,-292.82 629.85,-286.02 631.96,-296.4 637.97,-292.82"/>
<text xml:space="preserve" text-anchor="middle" x="706.87" y="-339.2" font-family="Arial" font-size="14.00">False Branch</text>
</g>
<!-- f1_n1&#45;&gt;f1_n3 -->
<g id="edge4" class="edge">
<title>f1_n1&#45;&gt;f1_n3</title>
<path fill="none" stroke="green" d="M742.1,-369.09C757.82,-356.38 776.15,-341.55 795.16,-326.17"/>
<polygon fill="green" stroke="green" points="797.18,-329.04 802.76,-320.03 792.78,-323.6 797.18,-329.04"/>
<text xml:space="preserve" text-anchor="middle" x="816.31" y="-339.2" font-family="Arial" font-size="14.00">True Branch</text>
</g>
<!-- f1_n2&#45;&gt;f1_n1 -->
<g id="edge6" class="edge">
<title>f1_n2&#45;&gt;f1_n1</title>
<path fill="none" stroke="red" stroke-width="2" stroke-dasharray="5,2" d="M573.34,-284.55C573.34,-307.76 577.23,-332.59 589.75,-352.5 591.41,-355.14 593.24,-357.66 595.21,-360.06"/>
<polygon fill="red" stroke="red" stroke-width="2" points="592.53,-362.33 601.97,-367.14 597.59,-357.49 592.53,-362.33"/>
<text xml:space="preserve" text-anchor="middle" x="622.38" y="-339.2" font-family="Arial" font-size="14.00">Back Edge</text>
</g>
<!-- f1_n4 -->
<g id="node7" class="node">
<title>f1_n4</title>
<polygon fill="lightgray" stroke="black" points="963,-52 909,-52 909,-16 963,-16 963,-52"/>
<text xml:space="preserve" text-anchor="middle" x="936" y="-29.32" font-family="monospace" font-size="14.00">EXIT</text>
</g>
<!-- f1_n3&#45;&gt;f1_n4 -->
<g id="edge7" class="edge">
<title>f1_n3&#45;&gt;f1_n4</title>
<path fill="none" stroke="black" d="M936,-103.26C936,-88.71 936,-74.91 936,-63.58"/>
<polygon fill="black" stroke="black" points="939.5,-63.84 936,-53.84 932.5,-63.84 939.5,-63.84"/>
<text xml:space="preserve" text-anchor="middle" x="976.88" y="-72.45" font-family="Arial" font-size="14.00">Unconditional</text>
</g>
</g>
</svg>
