<?xml version="1.0" encoding="UTF-8" standalone="no"?>
<!DOCTYPE svg PUBLIC "-//W3C//DTD SVG 1.1//EN"
 "http://www.w3.org/Graphics/SVG/1.1/DTD/svg11.dtd">
<!-- Generated by graphviz version 13.1.0 (20250701.0955)
 -->
<!-- Pages: 1 -->
<svg width="1145pt" height="780pt"
 viewBox="0.00 0.00 1145.00 780.00" xmlns="http://www.w3.org/2000/svg" xmlns:xlink="http://www.w3.org/1999/xlink">
<g id="graph0" class="graph" transform="scale(1 1) rotate(0) translate(4 776)">
<polygon fill="white" stroke="none" points="-4,4 -4,-776 1141,-776 1141,4 -4,4"/>
<g id="clust1" class="cluster">
<title>cluster_function_0</title>
<polygon fill="lightgrey" stroke="lightgrey" points="8,-400.25 8,-764 420,-764 420,-400.25 8,-400.25"/>
<text xml:space="preserve" text-anchor="middle" x="214" y="-746.7" font-family="Times,serif" font-size="14.00">Function 0</text>
</g>
<g id="clust2" class="cluster">
<title>cluster_function_1</title>
<polygon fill="lightgrey" stroke="lightgrey" points="428,-8 428,-720.88 1129,-720.88 1129,-8 428,-8"/>
<text xml:space="preserve" text-anchor="middle" x="778.5" y="-703.58" font-family="Times,serif" font-size="14.00">Function 1</text>
</g>
<!-- f0_n0 -->
<g id="node1" class="node">
<title>f0_n0</title>
<polygon fill="none" stroke="black" points="411.75,-731.5 16.25,-731.5 16.25,-516.5 411.75,-516.5 411.75,-731.5"/>
<text xml:space="preserve" text-anchor="start" x="24.25" y="-714.2" font-family="monospace" font-size="14.00">Block 0 (PC 0&#45;11)</text>
<text xml:space="preserve" text-anchor="start" x="24.25" y="-696.95" font-family="monospace" font-size="14.00"> &#160;0: DeclareGlobalVar &#160;&quot;main&quot;</text>
<text xml:space="preserve" text-anchor="start" x="24.25" y="-679.7" font-family="monospace" font-size="14.00"> &#160;1: CreateEnvironment r1</text>
<text xml:space="preserve" text-anchor="start" x="24.25" y="-662.45" font-family="monospace" font-size="14.00"> &#160;2: CreateClosure &#160;&#160;&#160;&#160;r2, r1, Function&lt;main&gt;1</text>
<text xml:space="preserve" text-anchor="start" x="24.25" y="-645.2" font-family="monospace" font-size="14.00"> &#160;3: GetGlobalObject &#160;&#160;r0</text>
<text xml:space="preserve" text-anchor="start" x="24.25" y="-627.95" font-family="monospace" font-size="14.00"> &#160;4: PutById &#160;&#160;&#160;&#160;&#160;&#160;&#160;&#160;&#160;&#160;r0, r2, 1, &quot;main&quot;</text>
<text xml:space="preserve" text-anchor="start" x="24.25" y="-610.7" font-family="monospace" font-size="14.00"> &#160;5: NewArrayWithBuffer r0, 360, 360, 0</text>
<text xml:space="preserve" text-anchor="start" x="24.25" y="-593.45" font-family="monospace" font-size="14.00"> &#160;6: StoreToEnvironment r1, 0, r0</text>
<text xml:space="preserve" text-anchor="start" x="24.25" y="-576.2" font-family="monospace" font-size="14.00"> &#160;7: NewObjectWithBuffer r0, 12, 12, 0, 0</text>
<text xml:space="preserve" text-anchor="start" x="24.25" y="-558.95" font-family="monospace" font-size="14.00"> &#160;8: StoreToEnvironment r1, 1, r0</text>
<text xml:space="preserve" text-anchor="start" x="24.25" y="-541.7" font-family="monospace" font-size="14.00"> &#160;9: LoadConstUndefined r0</text>
<text xml:space="preserve" text-anchor="start" x="24.25" y="-524.45" font-family="monospace" font-size="14.00"> &#160;10: Ret &#160;&#160;&#160;&#160;&#160;&#160;&#160;&#160;&#160;&#160;&#160;&#160;&#160;&#160;r0</text>
</g>
<!-- f0_n1 -->
<g id="node2" class="node">
<title>f0_n1</title>
<polygon fill="lightgray" stroke="black" points="241,-444.25 187,-444.25 187,-408.25 241,-408.25 241,-444.25"/>
<text xml:space="preserve" text-anchor="middle" x="214" y="-421.57" font-family="monospace" font-size="14.00">EXIT</text>
</g>
<!-- f0_n0&#45;&gt;f0_n1 -->
<g id="edge1" class="edge">
<title>f0_n0&#45;&gt;f0_n1</title>
<path fill="none" stroke="black" d="M214,-516.25C214,-494 214,-472.38 214,-456.01"/>
<polygon fill="black" stroke="black" points="217.5,-456.12 214,-446.12 210.5,-456.12 217.5,-456.12"/>
<text xml:space="preserve" text-anchor="middle" x="254.88" y="-485.2" font-family="Arial" font-size="14.00">Unconditional</text>
</g>
<!-- f1_n0 -->
<g id="node3" class="node">
<title>f1_n0</title>
<polygon fill="lightpink" stroke="black" stroke-width="2" points="977.75,-688.38 648.25,-688.38 648.25,-559.62 977.75,-559.62 977.75,-688.38"/>
<text xml:space="preserve" text-anchor="start" x="656.25" y="-671.08" font-family="monospace" font-size="14.00">Block 0 (PC 0&#45;5)</text>
<text xml:space="preserve" text-anchor="start" x="656.25" y="-653.83" font-family="monospace" font-size="14.00"> &#160;0: LoadConstString &#160;&#160;r6, &quot;_modified&quot;</text>
<text xml:space="preserve" text-anchor="start" x="656.25" y="-636.58" font-family="monospace" font-size="14.00"> &#160;1: GetEnvironment &#160;&#160;&#160;r0, 0</text>
<text xml:space="preserve" text-anchor="start" x="656.25" y="-619.33" font-family="monospace" font-size="14.00"> &#160;2: LoadFromEnvironment r4, r0, 1</text>
<text xml:space="preserve" text-anchor="start" x="656.25" y="-602.08" font-family="monospace" font-size="14.00"> &#160;3: GetPNameList &#160;&#160;&#160;&#160;&#160;r5, r4, r3, r2</text>
<text xml:space="preserve" text-anchor="start" x="656.25" y="-584.83" font-family="monospace" font-size="14.00"> &#160;4: JmpUndefined &#160;&#160;&#160;&#160;&#160;L1, r5</text>
<text xml:space="preserve" text-anchor="start" x="656.25" y="-567.58" font-family="monospace" font-size="14.00">[CONDITIONAL: IF&#45;ELSE]</text>
</g>
<!-- f1_n1 -->
<g id="node4" class="node">
<title>f1_n1</title>
<polygon fill="lightblue" stroke="red" stroke-width="3" points="871.12,-464.75 516.88,-464.75 516.88,-387.75 871.12,-387.75 871.12,-464.75"/>
<text xml:space="preserve" text-anchor="start" x="524.88" y="-447.45" font-family="monospace" font-size="14.00">Block 1 (PC 5&#45;7) [L2]</text>
<text xml:space="preserve" text-anchor="start" x="524.88" y="-430.2" font-family="monospace" font-size="14.00"> &#160;0: GetNextPName &#160;&#160;&#160;&#160;&#160;r1, r5, r4, r3, r2</text>
<text xml:space="preserve" text-anchor="start" x="524.88" y="-412.95" font-family="monospace" font-size="14.00"> &#160;1: JmpUndefined &#160;&#160;&#160;&#160;&#160;L1, r1</text>
<text xml:space="preserve" text-anchor="start" x="524.88" y="-395.7" font-family="monospace" font-size="14.00">[LOOP HEADER: While Loop]</text>
</g>
<!-- f1_n0&#45;&gt;f1_n1 -->
<g id="edge3" class="edge">
<title>f1_n0&#45;&gt;f1_n1</title>
<path fill="none" stroke="red" d="M773.87,-558.63C757.48,-531.68 738.75,-500.87 723.55,-475.86"/>
<polygon fill="red" stroke="red" points="726.67,-474.25 718.48,-467.53 720.69,-477.89 726.67,-474.25"/>
<text xml:space="preserve" text-anchor="middle" x="775.64" y="-485.2" font-family="Arial" font-size="14.00">False Branch</text>
</g>
<!-- f1_n3 -->
<g id="node6" class="node">
<title>f1_n3</title>
<polygon fill="lightpink" stroke="black" stroke-width="2" points="1121.38,-336 750.62,-336 750.62,-103.75 1121.38,-103.75 1121.38,-336"/>
<text xml:space="preserve" text-anchor="start" x="758.62" y="-318.7" font-family="monospace" font-size="14.00">Block 3 (PC 13&#45;24) [L1]</text>
<text xml:space="preserve" text-anchor="start" x="758.62" y="-301.45" font-family="monospace" font-size="14.00"> &#160;0: GetGlobalObject &#160;&#160;r1</text>
<text xml:space="preserve" text-anchor="start" x="758.62" y="-284.2" font-family="monospace" font-size="14.00"> &#160;1: TryGetById &#160;&#160;&#160;&#160;&#160;&#160;&#160;r4, r1, 1, &quot;console&quot;</text>
<text xml:space="preserve" text-anchor="start" x="758.62" y="-266.95" font-family="monospace" font-size="14.00"> &#160;2: GetByIdShort &#160;&#160;&#160;&#160;&#160;r3, r4, 2, &quot;log&quot;</text>
<text xml:space="preserve" text-anchor="start" x="758.62" y="-249.7" font-family="monospace" font-size="14.00"> &#160;3: LoadFromEnvironment r2, r0, 0</text>
<text xml:space="preserve" text-anchor="start" x="758.62" y="-232.45" font-family="monospace" font-size="14.00"> &#160;4: Call2 &#160;&#160;&#160;&#160;&#160;&#160;&#160;&#160;&#160;&#160;&#160;&#160;r2, r3, r4, r2</text>
<text xml:space="preserve" text-anchor="start" x="758.62" y="-215.2" font-family="monospace" font-size="14.00"> &#160;5: TryGetById &#160;&#160;&#160;&#160;&#160;&#160;&#160;r2, r1, 1, &quot;console&quot;</text>
<text xml:space="preserve" text-anchor="start" x="758.62" y="-197.95" font-family="monospace" font-size="14.00"> &#160;6: GetByIdShort &#160;&#160;&#160;&#160;&#160;r1, r2, 2, &quot;log&quot;</text>
<text xml:space="preserve" text-anchor="start" x="758.62" y="-180.7" font-family="monospace" font-size="14.00"> &#160;7: LoadFromEnvironment r0, r0, 1</text>
<text xml:space="preserve" text-anchor="start" x="758.62" y="-163.45" font-family="monospace" font-size="14.00"> &#160;8: Call2 &#160;&#160;&#160;&#160;&#160;&#160;&#160;&#160;&#160;&#160;&#160;&#160;r0, r1, r2, r0</text>
<text xml:space="preserve" text-anchor="start" x="758.62" y="-146.2" font-family="monospace" font-size="14.00"> &#160;9: LoadConstUndefined r0</text>
<text xml:space="preserve" text-anchor="start" x="758.62" y="-128.95" font-family="monospace" font-size="14.00"> &#160;10: Ret &#160;&#160;&#160;&#160;&#160;&#160;&#160;&#160;&#160;&#160;&#160;&#160;&#160;&#160;r0</text>
<text xml:space="preserve" text-anchor="start" x="758.62" y="-111.7" font-family="monospace" font-size="14.00">[CONDITIONAL: IF&#45;ELSE]</text>
</g>
<!-- f1_n0&#45;&gt;f1_n3 -->
<g id="edge2" class="edge">
<title>f1_n0&#45;&gt;f1_n3</title>
<path fill="none" stroke="green" d="M843.15,-558.91C855.72,-530.5 869.75,-496.4 880,-464.75 892.12,-427.32 902.67,-385.86 911.25,-347.89"/>
<polygon fill="green" stroke="green" points="914.64,-348.76 913.4,-338.24 907.81,-347.24 914.64,-348.76"/>
<text xml:space="preserve" text-anchor="middle" x="938.01" y="-420.82" font-family="Arial" font-size="14.00">True Branch</text>
</g>
<!-- f1_n2 -->
<g id="node5" class="node">
<title>f1_n2</title>
<polygon fill="lightblue" stroke="black" points="732.25,-292.88 435.75,-292.88 435.75,-146.88 732.25,-146.88 732.25,-292.88"/>
<text xml:space="preserve" text-anchor="start" x="443.75" y="-275.57" font-family="monospace" font-size="14.00">Block 2 (PC 7&#45;13)</text>
<text xml:space="preserve" text-anchor="start" x="443.75" y="-258.32" font-family="monospace" font-size="14.00"> &#160;0: Mov &#160;&#160;&#160;&#160;&#160;&#160;&#160;&#160;&#160;&#160;&#160;&#160;&#160;&#160;r9, r1</text>
<text xml:space="preserve" text-anchor="start" x="443.75" y="-241.07" font-family="monospace" font-size="14.00"> &#160;1: LoadFromEnvironment r8, r0, 1</text>
<text xml:space="preserve" text-anchor="start" x="443.75" y="-223.82" font-family="monospace" font-size="14.00"> &#160;2: GetByVal &#160;&#160;&#160;&#160;&#160;&#160;&#160;&#160;&#160;r7, r8, r9</text>
<text xml:space="preserve" text-anchor="start" x="443.75" y="-206.57" font-family="monospace" font-size="14.00"> &#160;3: Add &#160;&#160;&#160;&#160;&#160;&#160;&#160;&#160;&#160;&#160;&#160;&#160;&#160;&#160;r7, r7, r6</text>
<text xml:space="preserve" text-anchor="start" x="443.75" y="-189.32" font-family="monospace" font-size="14.00"> &#160;4: PutByVal &#160;&#160;&#160;&#160;&#160;&#160;&#160;&#160;&#160;r8, r9, r7</text>
<text xml:space="preserve" text-anchor="start" x="443.75" y="-172.07" font-family="monospace" font-size="14.00"> &#160;5: Jmp &#160;&#160;&#160;&#160;&#160;&#160;&#160;&#160;&#160;&#160;&#160;&#160;&#160;&#160;L2</text>
<text xml:space="preserve" text-anchor="start" x="443.75" y="-154.82" font-family="monospace" font-size="14.00">[LOOP BODY: While Loop]</text>
</g>
<!-- f1_n1&#45;&gt;f1_n2 -->
<g id="edge5" class="edge">
<title>f1_n1&#45;&gt;f1_n2</title>
<path fill="none" stroke="red" d="M675.5,-386.59C670.29,-375.97 664.52,-364.49 659,-354 650.27,-337.42 640.64,-319.86 631.28,-303.11"/>
<polygon fill="red" stroke="red" points="634.5,-301.69 626.56,-294.68 628.4,-305.11 634.5,-301.69"/>
<text xml:space="preserve" text-anchor="middle" x="706.72" y="-356.45" font-family="Arial" font-size="14.00">False Branch</text>
</g>
<!-- f1_n1&#45;&gt;f1_n3 -->
<g id="edge4" class="edge">
<title>f1_n1&#45;&gt;f1_n3</title>
<path fill="none" stroke="green" d="M740.09,-386.33C754.89,-373.82 772.17,-359.24 790.21,-344"/>
<polygon fill="green" stroke="green" points="792.01,-347.06 797.39,-337.94 787.49,-341.71 792.01,-347.06"/>
<text xml:space="preserve" text-anchor="middle" x="809.4" y="-356.45" font-family="Arial" font-size="14.00">True Branch</text>
</g>
<!-- f1_n2&#45;&gt;f1_n1 -->
<g id="edge6" class="edge">
<title>f1_n2&#45;&gt;f1_n1</title>
<path fill="none" stroke="red" stroke-width="2" stroke-dasharray="5,2" d="M572.53,-293.04C571.94,-318.95 575.66,-347.29 589.75,-369.75 591.4,-372.39 593.23,-374.91 595.2,-377.32"/>
<polygon fill="red" stroke="red" stroke-width="2" points="592.52,-379.58 601.95,-384.4 597.58,-374.75 592.52,-379.58"/>
<text xml:space="preserve" text-anchor="middle" x="622.38" y="-356.45" font-family="Arial" font-size="14.00">Back Edge</text>
</g>
<!-- f1_n4 -->
<g id="node7" class="node">
<title>f1_n4</title>
<polygon fill="lightgray" stroke="black" points="963,-52 909,-52 909,-16 963,-16 963,-52"/>
<text xml:space="preserve" text-anchor="middle" x="936" y="-29.32" font-family="monospace" font-size="14.00">EXIT</text>
</g>
<!-- f1_n3&#45;&gt;f1_n4 -->
<g id="edge7" class="edge">
<title>f1_n3&#45;&gt;f1_n4</title>
<path fill="none" stroke="black" d="M936,-102.95C936,-88.56 936,-75.03 936,-63.88"/>
<polygon fill="black" stroke="black" points="939.5,-63.9 936,-53.9 932.5,-63.9 939.5,-63.9"/>
<text xml:space="preserve" text-anchor="middle" x="976.88" y="-72.45" font-family="Arial" font-size="14.00">Unconditional</text>
</g>
</g>
</svg>
