<?xml version="1.0" encoding="UTF-8" standalone="no"?>
<!DOCTYPE svg PUBLIC "-//W3C//DTD SVG 1.1//EN"
 "http://www.w3.org/Graphics/SVG/1.1/DTD/svg11.dtd">
<!-- Generated by graphviz version 13.1.0 (20250701.0955)
 -->
<!-- Pages: 1 -->
<svg width="1703pt" height="611pt"
 viewBox="0.00 0.00 1703.00 611.00" xmlns="http://www.w3.org/2000/svg" xmlns:xlink="http://www.w3.org/1999/xlink">
<g id="graph0" class="graph" transform="scale(1 1) rotate(0) translate(4 607)">
<polygon fill="white" stroke="none" points="-4,4 -4,-607 1698.62,-607 1698.62,4 -4,4"/>
<!-- 0 -->
<g id="node1" class="node">
<title>0</title>
<polygon fill="lightcoral" stroke="black" points="658.25,-603 510.25,-603 510.25,-567 658.25,-567 658.25,-603"/>
<text xml:space="preserve" text-anchor="middle" x="584.25" y="-580.33" font-family="monospace" font-size="14.00">Block 0 (PC 0&#45;6)</text>
</g>
<!-- 1 -->
<g id="node2" class="node">
<title>1</title>
<polygon fill="lightcoral" stroke="black" points="449.25,-427.5 301.25,-427.5 301.25,-391.5 449.25,-391.5 449.25,-427.5"/>
<text xml:space="preserve" text-anchor="middle" x="375.25" y="-404.82" font-family="monospace" font-size="14.00">Block 1 (PC 6&#45;8)</text>
</g>
<!-- 0&#45;&gt;1 -->
<g id="edge2" class="edge">
<title>0&#45;&gt;1</title>
<path fill="none" stroke="purple" stroke-width="2" d="M563.45,-566.73C526.53,-536.09 449.41,-472.06 406.23,-436.22"/>
<polygon fill="purple" stroke="purple" stroke-width="2" points="408.54,-433.59 398.61,-429.89 404.07,-438.97 408.54,-433.59"/>
<text xml:space="preserve" text-anchor="middle" x="517.03" y="-491.82" font-family="Arial" font-size="14.00">False</text>
</g>
<!-- 7 -->
<g id="node8" class="node">
<title>7</title>
<polygon fill="lightcoral" stroke="black" points="942.5,-515.25 778,-515.25 778,-479.25 942.5,-479.25 942.5,-515.25"/>
<text xml:space="preserve" text-anchor="middle" x="860.25" y="-492.57" font-family="monospace" font-size="14.00">Block 7 (PC 18&#45;19)</text>
</g>
<!-- 0&#45;&gt;7 -->
<g id="edge1" class="edge">
<title>0&#45;&gt;7</title>
<path fill="none" stroke="purple" stroke-width="2" d="M640.44,-566.54C684.18,-552.95 745.09,-534.03 791.71,-519.55"/>
<polygon fill="purple" stroke="purple" stroke-width="2" points="792.74,-522.89 801.25,-516.58 790.66,-516.2 792.74,-522.89"/>
<text xml:space="preserve" text-anchor="middle" x="760.85" y="-535.7" font-family="Arial" font-size="14.00">True</text>
</g>
<!-- 2 -->
<g id="node3" class="node">
<title>2</title>
<polygon fill="lightcoral" stroke="black" points="449.25,-285.75 301.25,-285.75 301.25,-249.75 449.25,-249.75 449.25,-285.75"/>
<text xml:space="preserve" text-anchor="middle" x="375.25" y="-263.07" font-family="monospace" font-size="14.00">Block 2 (PC 8&#45;9)</text>
</g>
<!-- 1&#45;&gt;2 -->
<g id="edge4" class="edge">
<title>1&#45;&gt;2</title>
<path fill="none" stroke="purple" stroke-width="2" d="M375.25,-391.08C375.25,-368.05 375.25,-327.09 375.25,-298.96"/>
<polygon fill="purple" stroke="purple" stroke-width="2" points="378.75,-298.97 375.25,-288.97 371.75,-298.97 378.75,-298.97"/>
<text xml:space="preserve" text-anchor="middle" x="391.75" y="-360.2" font-family="Arial" font-size="14.00">False</text>
</g>
<!-- 3 -->
<g id="node4" class="node">
<title>3</title>
<polygon fill="lightpink" stroke="black" points="328.38,-339.75 172.12,-339.75 172.12,-303.75 328.38,-303.75 328.38,-339.75"/>
<text xml:space="preserve" text-anchor="middle" x="250.25" y="-317.07" font-family="monospace" font-size="14.00">Block 3 (PC 9&#45;10)</text>
</g>
<!-- 1&#45;&gt;3 -->
<g id="edge3" class="edge">
<title>1&#45;&gt;3</title>
<path fill="none" stroke="purple" stroke-width="2" d="M349.95,-391.15C331.57,-378.54 306.44,-361.29 286,-347.28"/>
<polygon fill="purple" stroke="purple" stroke-width="2" points="288.23,-344.56 278,-341.79 284.27,-350.33 288.23,-344.56"/>
<text xml:space="preserve" text-anchor="middle" x="337.82" y="-360.2" font-family="Arial" font-size="14.00">True</text>
</g>
<!-- 22 -->
<g id="node23" class="node">
<title>22</title>
<polygon fill="lightgray" stroke="black" points="829.25,-36 775.25,-36 775.25,0 829.25,0 829.25,-36"/>
<text xml:space="preserve" text-anchor="middle" x="802.25" y="-13.32" font-family="monospace" font-size="14.00">EXIT</text>
</g>
<!-- 2&#45;&gt;22 -->
<g id="edge5" class="edge">
<title>2&#45;&gt;22</title>
<path fill="none" stroke="black" d="M371.03,-249.49C363.5,-214.01 352.18,-132.48 394.25,-87.75 444.23,-34.62 671.7,-22.52 763.58,-19.79"/>
<polygon fill="black" stroke="black" points="763.44,-23.29 773.35,-19.52 763.25,-16.3 763.44,-23.29"/>
<text xml:space="preserve" text-anchor="middle" x="390.73" y="-154.32" font-family="Arial" font-size="14.00">Uncond</text>
</g>
<!-- 4 -->
<g id="node5" class="node">
<title>4</title>
<polygon fill="lightpink" stroke="black" points="332.5,-231.75 168,-231.75 168,-195.75 332.5,-195.75 332.5,-231.75"/>
<text xml:space="preserve" text-anchor="middle" x="250.25" y="-209.07" font-family="monospace" font-size="14.00">Block 4 (PC 10&#45;11)</text>
</g>
<!-- 3&#45;&gt;4 -->
<g id="edge7" class="edge">
<title>3&#45;&gt;4</title>
<path fill="none" stroke="purple" stroke-width="2" d="M250.25,-303.72C250.25,-287.9 250.25,-263.97 250.25,-244.92"/>
<polygon fill="purple" stroke="purple" stroke-width="2" points="253.75,-245.12 250.25,-235.12 246.75,-245.12 253.75,-245.12"/>
<text xml:space="preserve" text-anchor="middle" x="266.75" y="-262.32" font-family="Arial" font-size="14.00">False</text>
</g>
<!-- 5 -->
<g id="node6" class="node">
<title>5</title>
<polygon fill="lightpink" stroke="black" points="164.5,-123.75 0,-123.75 0,-87.75 164.5,-87.75 164.5,-123.75"/>
<text xml:space="preserve" text-anchor="middle" x="82.25" y="-101.08" font-family="monospace" font-size="14.00">Block 5 (PC 11&#45;13)</text>
</g>
<!-- 3&#45;&gt;5 -->
<g id="edge6" class="edge">
<title>3&#45;&gt;5</title>
<path fill="none" stroke="purple" stroke-width="2" d="M217.82,-303.26C191.43,-287.59 154.86,-262.38 131.5,-231.75 109.6,-203.03 96.18,-163.32 88.98,-136.43"/>
<polygon fill="purple" stroke="purple" stroke-width="2" points="92.43,-135.79 86.6,-126.94 85.64,-137.49 92.43,-135.79"/>
<text xml:space="preserve" text-anchor="middle" x="145.38" y="-208.32" font-family="Arial" font-size="14.00">True</text>
</g>
<!-- 4&#45;&gt;5 -->
<g id="edge9" class="edge">
<title>4&#45;&gt;5</title>
<path fill="none" stroke="purple" stroke-width="2" d="M222.88,-195.48C195.14,-177.98 151.98,-150.74 120.78,-131.06"/>
<polygon fill="purple" stroke="purple" stroke-width="2" points="122.77,-128.18 112.44,-125.8 119.03,-134.1 122.77,-128.18"/>
<text xml:space="preserve" text-anchor="middle" x="207.61" y="-154.32" font-family="Arial" font-size="14.00">False</text>
</g>
<!-- 6 -->
<g id="node7" class="node">
<title>6</title>
<polygon fill="lightpink" stroke="black" points="347.5,-123.75 183,-123.75 183,-87.75 347.5,-87.75 347.5,-123.75"/>
<text xml:space="preserve" text-anchor="middle" x="265.25" y="-101.08" font-family="monospace" font-size="14.00">Block 6 (PC 13&#45;18)</text>
</g>
<!-- 4&#45;&gt;6 -->
<g id="edge8" class="edge">
<title>4&#45;&gt;6</title>
<path fill="none" stroke="purple" stroke-width="2" d="M252.66,-195.72C254.9,-179.9 258.28,-155.97 260.98,-136.92"/>
<polygon fill="purple" stroke="purple" stroke-width="2" points="264.44,-137.48 262.37,-127.09 257.51,-136.5 264.44,-137.48"/>
<text xml:space="preserve" text-anchor="middle" x="273.85" y="-154.32" font-family="Arial" font-size="14.00">True</text>
</g>
<!-- 5&#45;&gt;22 -->
<g id="edge10" class="edge">
<title>5&#45;&gt;22</title>
<path fill="none" stroke="black" d="M127.16,-87.3C158.93,-75.77 202.82,-61.45 242.75,-54 342.92,-35.32 653.57,-23.78 763.34,-20.2"/>
<polygon fill="black" stroke="black" points="763.42,-23.7 773.3,-19.88 763.2,-16.7 763.42,-23.7"/>
<text xml:space="preserve" text-anchor="middle" x="266" y="-56.45" font-family="Arial" font-size="14.00">Uncond</text>
</g>
<!-- 6&#45;&gt;22 -->
<g id="edge11" class="edge">
<title>6&#45;&gt;22</title>
<path fill="none" stroke="black" d="M276.9,-87.4C285.78,-75.76 299.12,-61.26 314.75,-54 355.04,-35.29 655.59,-23.77 763.68,-20.2"/>
<polygon fill="black" stroke="black" points="763.6,-23.7 773.48,-19.88 763.37,-16.71 763.6,-23.7"/>
<text xml:space="preserve" text-anchor="middle" x="338" y="-56.45" font-family="Arial" font-size="14.00">Uncond</text>
</g>
<!-- 8 -->
<g id="node9" class="node">
<title>8</title>
<polygon fill="lightcoral" stroke="black" points="1348.5,-339.75 1184,-339.75 1184,-303.75 1348.5,-303.75 1348.5,-339.75"/>
<text xml:space="preserve" text-anchor="middle" x="1266.25" y="-317.07" font-family="monospace" font-size="14.00">Block 8 (PC 19&#45;21)</text>
</g>
<!-- 7&#45;&gt;8 -->
<g id="edge13" class="edge">
<title>7&#45;&gt;8</title>
<path fill="none" stroke="purple" stroke-width="2" d="M901.04,-478.82C975.13,-447.16 1131.74,-380.23 1213.72,-345.2"/>
<polygon fill="purple" stroke="purple" stroke-width="2" points="1214.89,-348.51 1222.71,-341.36 1212.13,-342.07 1214.89,-348.51"/>
<text xml:space="preserve" text-anchor="middle" x="1120.11" y="-404.07" font-family="Arial" font-size="14.00">False</text>
</g>
<!-- 13 -->
<g id="node14" class="node">
<title>13</title>
<polygon fill="lightcoral" stroke="black" points="946.62,-427.5 773.88,-427.5 773.88,-391.5 946.62,-391.5 946.62,-427.5"/>
<text xml:space="preserve" text-anchor="middle" x="860.25" y="-404.82" font-family="monospace" font-size="14.00">Block 13 (PC 29&#45;30)</text>
</g>
<!-- 7&#45;&gt;13 -->
<g id="edge12" class="edge">
<title>7&#45;&gt;13</title>
<path fill="none" stroke="purple" stroke-width="2" d="M860.25,-478.9C860.25,-467.97 860.25,-453.57 860.25,-440.8"/>
<polygon fill="purple" stroke="purple" stroke-width="2" points="863.75,-440.85 860.25,-430.85 856.75,-440.85 863.75,-440.85"/>
<text xml:space="preserve" text-anchor="middle" x="874.12" y="-447.95" font-family="Arial" font-size="14.00">True</text>
</g>
<!-- 9 -->
<g id="node10" class="node">
<title>9</title>
<polygon fill="lightcoral" stroke="black" points="1348.5,-177.75 1184,-177.75 1184,-141.75 1348.5,-141.75 1348.5,-177.75"/>
<text xml:space="preserve" text-anchor="middle" x="1266.25" y="-155.07" font-family="monospace" font-size="14.00">Block 9 (PC 21&#45;22)</text>
</g>
<!-- 8&#45;&gt;9 -->
<g id="edge15" class="edge">
<title>8&#45;&gt;9</title>
<path fill="none" stroke="purple" stroke-width="2" d="M1266.25,-303.32C1266.25,-276.39 1266.25,-224.31 1266.25,-191.1"/>
<polygon fill="purple" stroke="purple" stroke-width="2" points="1269.75,-191.18 1266.25,-181.18 1262.75,-191.18 1269.75,-191.18"/>
<text xml:space="preserve" text-anchor="middle" x="1282.75" y="-262.32" font-family="Arial" font-size="14.00">False</text>
</g>
<!-- 10 -->
<g id="node11" class="node">
<title>10</title>
<polygon fill="lightpink" stroke="black" points="1503.62,-231.75 1330.88,-231.75 1330.88,-195.75 1503.62,-195.75 1503.62,-231.75"/>
<text xml:space="preserve" text-anchor="middle" x="1417.25" y="-209.07" font-family="monospace" font-size="14.00">Block 10 (PC 22&#45;23)</text>
</g>
<!-- 8&#45;&gt;10 -->
<g id="edge14" class="edge">
<title>8&#45;&gt;10</title>
<path fill="none" stroke="purple" stroke-width="2" d="M1290.85,-303.48C1315.56,-286.13 1353.9,-259.22 1381.88,-239.58"/>
<polygon fill="purple" stroke="purple" stroke-width="2" points="1383.76,-242.53 1389.93,-233.92 1379.74,-236.81 1383.76,-242.53"/>
<text xml:space="preserve" text-anchor="middle" x="1377.97" y="-262.32" font-family="Arial" font-size="14.00">True</text>
</g>
<!-- 9&#45;&gt;22 -->
<g id="edge16" class="edge">
<title>9&#45;&gt;22</title>
<path fill="none" stroke="black" d="M1264.45,-141.36C1261.8,-125 1255.27,-101.08 1239.25,-87.75 1178.88,-37.53 936.09,-23.67 840.86,-20.13"/>
<polygon fill="black" stroke="black" points="841.1,-16.64 830.99,-19.78 840.86,-23.63 841.1,-16.64"/>
<text xml:space="preserve" text-anchor="middle" x="1283.63" y="-100.33" font-family="Arial" font-size="14.00">Uncond</text>
</g>
<!-- 11 -->
<g id="node12" class="node">
<title>11</title>
<polygon fill="lightpink" stroke="black" points="1503.62,-123.75 1330.88,-123.75 1330.88,-87.75 1503.62,-87.75 1503.62,-123.75"/>
<text xml:space="preserve" text-anchor="middle" x="1417.25" y="-101.08" font-family="monospace" font-size="14.00">Block 11 (PC 23&#45;26)</text>
</g>
<!-- 10&#45;&gt;11 -->
<g id="edge18" class="edge">
<title>10&#45;&gt;11</title>
<path fill="none" stroke="purple" stroke-width="2" d="M1417.25,-195.72C1417.25,-179.9 1417.25,-155.97 1417.25,-136.92"/>
<polygon fill="purple" stroke="purple" stroke-width="2" points="1420.75,-137.12 1417.25,-127.12 1413.75,-137.12 1420.75,-137.12"/>
<text xml:space="preserve" text-anchor="middle" x="1433.75" y="-154.32" font-family="Arial" font-size="14.00">False</text>
</g>
<!-- 12 -->
<g id="node13" class="node">
<title>12</title>
<polygon fill="lightpink" stroke="black" points="1694.62,-123.75 1521.88,-123.75 1521.88,-87.75 1694.62,-87.75 1694.62,-123.75"/>
<text xml:space="preserve" text-anchor="middle" x="1608.25" y="-101.08" font-family="monospace" font-size="14.00">Block 12 (PC 26&#45;29)</text>
</g>
<!-- 10&#45;&gt;12 -->
<g id="edge17" class="edge">
<title>10&#45;&gt;12</title>
<path fill="none" stroke="purple" stroke-width="2" d="M1448.36,-195.48C1480.32,-177.75 1530.27,-150.03 1565.83,-130.29"/>
<polygon fill="purple" stroke="purple" stroke-width="2" points="1567.14,-133.57 1574.19,-125.65 1563.74,-127.45 1567.14,-133.57"/>
<text xml:space="preserve" text-anchor="middle" x="1554.89" y="-154.32" font-family="Arial" font-size="14.00">True</text>
</g>
<!-- 11&#45;&gt;22 -->
<g id="edge19" class="edge">
<title>11&#45;&gt;22</title>
<path fill="none" stroke="black" d="M1379.15,-87.33C1352.13,-75.8 1314.7,-61.48 1280.25,-54 1119.99,-19.18 923.16,-17.23 841.07,-18.18"/>
<polygon fill="black" stroke="black" points="841.05,-14.68 831.1,-18.32 841.14,-21.68 841.05,-14.68"/>
<text xml:space="preserve" text-anchor="middle" x="1357.34" y="-56.45" font-family="Arial" font-size="14.00">Uncond</text>
</g>
<!-- 12&#45;&gt;22 -->
<g id="edge20" class="edge">
<title>12&#45;&gt;22</title>
<path fill="none" stroke="black" d="M1544.07,-87.29C1499.56,-75.9 1438.73,-61.76 1384.25,-54 1181.2,-25.09 934.98,-20.02 841.13,-19.16"/>
<polygon fill="black" stroke="black" points="841.22,-15.66 831.19,-19.08 841.17,-22.66 841.22,-15.66"/>
<text xml:space="preserve" text-anchor="middle" x="1488.22" y="-56.45" font-family="Arial" font-size="14.00">Uncond</text>
</g>
<!-- 14 -->
<g id="node15" class="node">
<title>14</title>
<polygon fill="lightcoral" stroke="black" points="889.62,-339.75 716.88,-339.75 716.88,-303.75 889.62,-303.75 889.62,-339.75"/>
<text xml:space="preserve" text-anchor="middle" x="803.25" y="-317.07" font-family="monospace" font-size="14.00">Block 14 (PC 30&#45;32)</text>
</g>
<!-- 13&#45;&gt;14 -->
<g id="edge22" class="edge">
<title>13&#45;&gt;14</title>
<path fill="none" stroke="purple" stroke-width="2" d="M848.72,-391.15C840.99,-379.52 830.65,-363.97 821.78,-350.63"/>
<polygon fill="purple" stroke="purple" stroke-width="2" points="824.89,-348.99 816.44,-342.6 819.06,-352.86 824.89,-348.99"/>
<text xml:space="preserve" text-anchor="middle" x="853.36" y="-360.2" font-family="Arial" font-size="14.00">False</text>
</g>
<!-- 19 -->
<g id="node20" class="node">
<title>19</title>
<polygon fill="lightpink" stroke="black" points="1039.62,-231.75 866.88,-231.75 866.88,-195.75 1039.62,-195.75 1039.62,-231.75"/>
<text xml:space="preserve" text-anchor="middle" x="953.25" y="-209.07" font-family="monospace" font-size="14.00">Block 19 (PC 42&#45;43)</text>
</g>
<!-- 13&#45;&gt;19 -->
<g id="edge21" class="edge">
<title>13&#45;&gt;19</title>
<path fill="none" stroke="purple" stroke-width="2" d="M870.38,-391.21C878.3,-377.45 889.42,-357.59 898.25,-339.75 914.27,-307.4 930.69,-269.31 941.37,-243.75"/>
<polygon fill="purple" stroke="purple" stroke-width="2" points="944.5,-245.33 945.1,-234.75 938.03,-242.65 944.5,-245.33"/>
<text xml:space="preserve" text-anchor="middle" x="929.06" y="-316.32" font-family="Arial" font-size="14.00">True</text>
</g>
<!-- 15 -->
<g id="node16" class="node">
<title>15</title>
<polygon fill="lightcoral" stroke="black" points="765.62,-231.75 592.88,-231.75 592.88,-195.75 765.62,-195.75 765.62,-231.75"/>
<text xml:space="preserve" text-anchor="middle" x="679.25" y="-209.07" font-family="monospace" font-size="14.00">Block 15 (PC 32&#45;35)</text>
</g>
<!-- 14&#45;&gt;15 -->
<g id="edge24" class="edge">
<title>14&#45;&gt;15</title>
<path fill="none" stroke="purple" stroke-width="2" d="M772.97,-303.26C764.68,-298 755.89,-291.97 748.25,-285.75 731.95,-272.48 715.47,-255.68 702.71,-241.76"/>
<polygon fill="purple" stroke="purple" stroke-width="2" points="705.44,-239.56 696.15,-234.47 700.24,-244.24 705.44,-239.56"/>
<text xml:space="preserve" text-anchor="middle" x="764.75" y="-262.32" font-family="Arial" font-size="14.00">False</text>
</g>
<!-- 18 -->
<g id="node19" class="node">
<title>18</title>
<polygon fill="lightcoral" stroke="black" points="889.62,-177.75 716.88,-177.75 716.88,-141.75 889.62,-141.75 889.62,-177.75"/>
<text xml:space="preserve" text-anchor="middle" x="803.25" y="-155.07" font-family="monospace" font-size="14.00">Block 18 (PC 39&#45;42)</text>
</g>
<!-- 14&#45;&gt;18 -->
<g id="edge23" class="edge">
<title>14&#45;&gt;18</title>
<path fill="none" stroke="purple" stroke-width="2" d="M803.25,-303.32C803.25,-276.39 803.25,-224.31 803.25,-191.1"/>
<polygon fill="purple" stroke="purple" stroke-width="2" points="806.75,-191.18 803.25,-181.18 799.75,-191.18 806.75,-191.18"/>
<text xml:space="preserve" text-anchor="middle" x="817.12" y="-262.32" font-family="Arial" font-size="14.00">True</text>
</g>
<!-- 16 -->
<g id="node17" class="node">
<title>16</title>
<polygon fill="lightcoral" stroke="black" points="766.62,-123.75 593.88,-123.75 593.88,-87.75 766.62,-87.75 766.62,-123.75"/>
<text xml:space="preserve" text-anchor="middle" x="680.25" y="-101.08" font-family="monospace" font-size="14.00">Block 16 (PC 35&#45;37)</text>
</g>
<!-- 15&#45;&gt;16 -->
<g id="edge26" class="edge">
<title>15&#45;&gt;16</title>
<path fill="none" stroke="purple" stroke-width="2" d="M676.86,-195.34C676.2,-189.73 675.58,-183.49 675.25,-177.75 674.34,-161.78 674.12,-157.71 675.25,-141.75 675.37,-140.13 675.51,-138.47 675.68,-136.8"/>
<polygon fill="purple" stroke="purple" stroke-width="2" points="679.12,-137.51 676.89,-127.15 672.17,-136.63 679.12,-137.51"/>
<text xml:space="preserve" text-anchor="middle" x="691.75" y="-154.32" font-family="Arial" font-size="14.00">False</text>
</g>
<!-- 17 -->
<g id="node18" class="node">
<title>17</title>
<polygon fill="lightcoral" stroke="black" points="575.62,-123.75 402.88,-123.75 402.88,-87.75 575.62,-87.75 575.62,-123.75"/>
<text xml:space="preserve" text-anchor="middle" x="489.25" y="-101.08" font-family="monospace" font-size="14.00">Block 17 (PC 37&#45;39)</text>
</g>
<!-- 15&#45;&gt;17 -->
<g id="edge25" class="edge">
<title>15&#45;&gt;17</title>
<path fill="none" stroke="purple" stroke-width="2" d="M648.3,-195.48C616.51,-177.75 566.82,-150.03 531.44,-130.29"/>
<polygon fill="purple" stroke="purple" stroke-width="2" points="533.58,-127.48 523.15,-125.66 530.17,-133.59 533.58,-127.48"/>
<text xml:space="preserve" text-anchor="middle" x="626.25" y="-154.32" font-family="Arial" font-size="14.00">True</text>
</g>
<!-- 16&#45;&gt;22 -->
<g id="edge27" class="edge">
<title>16&#45;&gt;22</title>
<path fill="none" stroke="black" d="M699.54,-87.43C711.34,-77.19 726.97,-64.27 741.75,-54 749.11,-48.89 757.25,-43.81 765.12,-39.18"/>
<polygon fill="black" stroke="black" points="766.62,-42.35 773.54,-34.33 763.13,-36.29 766.62,-42.35"/>
<text xml:space="preserve" text-anchor="middle" x="765" y="-56.45" font-family="Arial" font-size="14.00">Uncond</text>
</g>
<!-- 17&#45;&gt;22 -->
<g id="edge28" class="edge">
<title>17&#45;&gt;22</title>
<path fill="none" stroke="black" d="M551.3,-87.34C586.59,-77.48 631.62,-64.96 671.75,-54 702.8,-45.52 738.05,-36.08 764.08,-29.14"/>
<polygon fill="black" stroke="black" points="764.76,-32.58 773.52,-26.62 762.96,-25.81 764.76,-32.58"/>
<text xml:space="preserve" text-anchor="middle" x="695" y="-56.45" font-family="Arial" font-size="14.00">Uncond</text>
</g>
<!-- 18&#45;&gt;22 -->
<g id="edge29" class="edge">
<title>18&#45;&gt;22</title>
<path fill="none" stroke="black" d="M803.13,-141.33C802.96,-117.88 802.66,-75.84 802.46,-47.68"/>
<polygon fill="black" stroke="black" points="805.96,-47.69 802.38,-37.71 798.96,-47.74 805.96,-47.69"/>
<text xml:space="preserve" text-anchor="middle" x="826.25" y="-100.33" font-family="Arial" font-size="14.00">Uncond</text>
</g>
<!-- 20 -->
<g id="node21" class="node">
<title>20</title>
<polygon fill="lightpink" stroke="black" points="1230.62,-123.75 1057.88,-123.75 1057.88,-87.75 1230.62,-87.75 1230.62,-123.75"/>
<text xml:space="preserve" text-anchor="middle" x="1144.25" y="-101.08" font-family="monospace" font-size="14.00">Block 20 (PC 43&#45;47)</text>
</g>
<!-- 19&#45;&gt;20 -->
<g id="edge31" class="edge">
<title>19&#45;&gt;20</title>
<path fill="none" stroke="purple" stroke-width="2" d="M984.36,-195.48C1016.32,-177.75 1066.27,-150.03 1101.83,-130.29"/>
<polygon fill="purple" stroke="purple" stroke-width="2" points="1103.14,-133.57 1110.19,-125.65 1099.74,-127.45 1103.14,-133.57"/>
<text xml:space="preserve" text-anchor="middle" x="1093.52" y="-154.32" font-family="Arial" font-size="14.00">False</text>
</g>
<!-- 21 -->
<g id="node22" class="node">
<title>21</title>
<polygon fill="lightpink" stroke="black" points="1039.62,-123.75 866.88,-123.75 866.88,-87.75 1039.62,-87.75 1039.62,-123.75"/>
<text xml:space="preserve" text-anchor="middle" x="953.25" y="-101.08" font-family="monospace" font-size="14.00">Block 21 (PC 47&#45;51)</text>
</g>
<!-- 19&#45;&gt;21 -->
<g id="edge30" class="edge">
<title>19&#45;&gt;21</title>
<path fill="none" stroke="purple" stroke-width="2" d="M953.25,-195.72C953.25,-179.9 953.25,-155.97 953.25,-136.92"/>
<polygon fill="purple" stroke="purple" stroke-width="2" points="956.75,-137.12 953.25,-127.12 949.75,-137.12 956.75,-137.12"/>
<text xml:space="preserve" text-anchor="middle" x="967.12" y="-154.32" font-family="Arial" font-size="14.00">True</text>
</g>
<!-- 20&#45;&gt;22 -->
<g id="edge32" class="edge">
<title>20&#45;&gt;22</title>
<path fill="none" stroke="black" d="M1075.07,-87.35C1036.07,-77.54 986.44,-65.08 942.25,-54 907.86,-45.38 868.72,-35.6 840.58,-28.57"/>
<polygon fill="black" stroke="black" points="841.63,-25.23 831.08,-26.2 839.94,-32.02 841.63,-25.23"/>
<text xml:space="preserve" text-anchor="middle" x="1026.58" y="-56.45" font-family="Arial" font-size="14.00">Uncond</text>
</g>
<!-- 21&#45;&gt;22 -->
<g id="edge33" class="edge">
<title>21&#45;&gt;22</title>
<path fill="none" stroke="black" d="M922.69,-87.4C898.65,-73.74 865.05,-54.66 839.45,-40.12"/>
<polygon fill="black" stroke="black" points="841.46,-37.24 831.03,-35.34 838,-43.33 841.46,-37.24"/>
<text xml:space="preserve" text-anchor="middle" x="914.52" y="-56.45" font-family="Arial" font-size="14.00">Uncond</text>
</g>
</g>
</svg>
