<?xml version="1.0" encoding="UTF-8" standalone="no"?>
<!DOCTYPE svg PUBLIC "-//W3C//DTD SVG 1.1//EN"
 "http://www.w3.org/Graphics/SVG/1.1/DTD/svg11.dtd">
<!-- Generated by graphviz version 13.1.0 (20250701.0955)
 -->
<!-- Pages: 1 -->
<svg width="1145pt" height="698pt"
 viewBox="0.00 0.00 1145.00 698.00" xmlns="http://www.w3.org/2000/svg" xmlns:xlink="http://www.w3.org/1999/xlink">
<g id="graph0" class="graph" transform="scale(1 1) rotate(0) translate(4 694.25)">
<polygon fill="white" stroke="none" points="-4,4 -4,-694.25 1141,-694.25 1141,4 -4,4"/>
<g id="clust1" class="cluster">
<title>cluster_function_0</title>
<polygon fill="lightgrey" stroke="lightgrey" points="8,-342.88 8,-682.25 420,-682.25 420,-342.88 8,-342.88"/>
<text xml:space="preserve" text-anchor="middle" x="214" y="-664.95" font-family="Times,serif" font-size="14.00">Function 0</text>
</g>
<g id="clust2" class="cluster">
<title>cluster_function_1</title>
<polygon fill="lightgrey" stroke="lightgrey" points="428,-8 428,-630.5 1129,-630.5 1129,-8 428,-8"/>
<text xml:space="preserve" text-anchor="middle" x="778.5" y="-613.2" font-family="Times,serif" font-size="14.00">Function 1</text>
</g>
<!-- f0_n0 -->
<g id="node1" class="node">
<title>f0_n0</title>
<polygon fill="none" stroke="black" points="411.75,-649.75 16.25,-649.75 16.25,-434.75 411.75,-434.75 411.75,-649.75"/>
<text xml:space="preserve" text-anchor="start" x="24.25" y="-632.45" font-family="monospace" font-size="14.00">Block 0 (PC 0&#45;11)</text>
<text xml:space="preserve" text-anchor="start" x="24.25" y="-615.2" font-family="monospace" font-size="14.00"> &#160;0: DeclareGlobalVar &#160;&quot;main&quot;</text>
<text xml:space="preserve" text-anchor="start" x="24.25" y="-597.95" font-family="monospace" font-size="14.00"> &#160;1: CreateEnvironment r1</text>
<text xml:space="preserve" text-anchor="start" x="24.25" y="-580.7" font-family="monospace" font-size="14.00"> &#160;2: CreateClosure &#160;&#160;&#160;&#160;r2, r1, Function&lt;main&gt;1</text>
<text xml:space="preserve" text-anchor="start" x="24.25" y="-563.45" font-family="monospace" font-size="14.00"> &#160;3: GetGlobalObject &#160;&#160;r0</text>
<text xml:space="preserve" text-anchor="start" x="24.25" y="-546.2" font-family="monospace" font-size="14.00"> &#160;4: PutById &#160;&#160;&#160;&#160;&#160;&#160;&#160;&#160;&#160;&#160;r0, r2, 1, &quot;main&quot;</text>
<text xml:space="preserve" text-anchor="start" x="24.25" y="-528.95" font-family="monospace" font-size="14.00"> &#160;5: NewArrayWithBuffer r0, 360, 360, 0</text>
<text xml:space="preserve" text-anchor="start" x="24.25" y="-511.7" font-family="monospace" font-size="14.00"> &#160;6: StoreToEnvironment r1, 0, r0</text>
<text xml:space="preserve" text-anchor="start" x="24.25" y="-494.45" font-family="monospace" font-size="14.00"> &#160;7: NewObjectWithBuffer r0, 12, 12, 0, 0</text>
<text xml:space="preserve" text-anchor="start" x="24.25" y="-477.2" font-family="monospace" font-size="14.00"> &#160;8: StoreToEnvironment r1, 1, r0</text>
<text xml:space="preserve" text-anchor="start" x="24.25" y="-459.95" font-family="monospace" font-size="14.00"> &#160;9: LoadConstUndefined r0</text>
<text xml:space="preserve" text-anchor="start" x="24.25" y="-442.7" font-family="monospace" font-size="14.00"> &#160;10: Ret &#160;&#160;&#160;&#160;&#160;&#160;&#160;&#160;&#160;&#160;&#160;&#160;&#160;&#160;r0</text>
</g>
<!-- f0_n1 -->
<g id="node2" class="node">
<title>f0_n1</title>
<polygon fill="none" stroke="black" points="241,-386.88 187,-386.88 187,-350.88 241,-350.88 241,-386.88"/>
<text xml:space="preserve" text-anchor="middle" x="214" y="-364.2" font-family="monospace" font-size="14.00">EXIT</text>
</g>
<!-- f0_n0&#45;&gt;f0_n1 -->
<g id="edge1" class="edge">
<title>f0_n0&#45;&gt;f0_n1</title>
<path fill="none" stroke="black" d="M214,-434.66C214,-421.46 214,-408.95 214,-398.52"/>
<polygon fill="black" stroke="black" points="217.5,-398.81 214,-388.81 210.5,-398.81 217.5,-398.81"/>
</g>
<!-- f1_n0 -->
<g id="node3" class="node">
<title>f1_n0</title>
<polygon fill="none" stroke="black" points="954.75,-598 625.25,-598 625.25,-486.5 954.75,-486.5 954.75,-598"/>
<text xml:space="preserve" text-anchor="start" x="633.25" y="-580.7" font-family="monospace" font-size="14.00">Block 0 (PC 0&#45;5)</text>
<text xml:space="preserve" text-anchor="start" x="633.25" y="-563.45" font-family="monospace" font-size="14.00"> &#160;0: LoadConstString &#160;&#160;r6, &quot;_modified&quot;</text>
<text xml:space="preserve" text-anchor="start" x="633.25" y="-546.2" font-family="monospace" font-size="14.00"> &#160;1: GetEnvironment &#160;&#160;&#160;r0, 0</text>
<text xml:space="preserve" text-anchor="start" x="633.25" y="-528.95" font-family="monospace" font-size="14.00"> &#160;2: LoadFromEnvironment r4, r0, 1</text>
<text xml:space="preserve" text-anchor="start" x="633.25" y="-511.7" font-family="monospace" font-size="14.00"> &#160;3: GetPNameList &#160;&#160;&#160;&#160;&#160;r5, r4, r3, r2</text>
<text xml:space="preserve" text-anchor="start" x="633.25" y="-494.45" font-family="monospace" font-size="14.00"> &#160;4: JmpUndefined &#160;&#160;&#160;&#160;&#160;L1, r5</text>
</g>
<!-- f1_n1 -->
<g id="node4" class="node">
<title>f1_n1</title>
<polygon fill="none" stroke="black" points="853.12,-398.75 498.88,-398.75 498.88,-339 853.12,-339 853.12,-398.75"/>
<text xml:space="preserve" text-anchor="start" x="506.88" y="-381.45" font-family="monospace" font-size="14.00">Block 1 (PC 5&#45;7)</text>
<text xml:space="preserve" text-anchor="start" x="506.88" y="-364.2" font-family="monospace" font-size="14.00"> &#160;0: GetNextPName &#160;&#160;&#160;&#160;&#160;r1, r5, r4, r3, r2</text>
<text xml:space="preserve" text-anchor="start" x="506.88" y="-346.95" font-family="monospace" font-size="14.00"> &#160;1: JmpUndefined &#160;&#160;&#160;&#160;&#160;L1, r1</text>
</g>
<!-- f1_n0&#45;&gt;f1_n1 -->
<g id="edge3" class="edge">
<title>f1_n0&#45;&gt;f1_n1</title>
<path fill="none" stroke="black" d="M753.3,-486.08C736.44,-460.74 716.86,-431.3 701.62,-408.39"/>
<polygon fill="black" stroke="black" points="704.67,-406.65 696.22,-400.27 698.84,-410.53 704.67,-406.65"/>
</g>
<!-- f1_n3 -->
<g id="node6" class="node">
<title>f1_n3</title>
<polygon fill="none" stroke="black" points="1121.38,-303 750.62,-303 750.62,-88 1121.38,-88 1121.38,-303"/>
<text xml:space="preserve" text-anchor="start" x="758.62" y="-285.7" font-family="monospace" font-size="14.00">Block 3 (PC 13&#45;24)</text>
<text xml:space="preserve" text-anchor="start" x="758.62" y="-268.45" font-family="monospace" font-size="14.00"> &#160;0: GetGlobalObject &#160;&#160;r1</text>
<text xml:space="preserve" text-anchor="start" x="758.62" y="-251.2" font-family="monospace" font-size="14.00"> &#160;1: TryGetById &#160;&#160;&#160;&#160;&#160;&#160;&#160;r4, r1, 1, &quot;console&quot;</text>
<text xml:space="preserve" text-anchor="start" x="758.62" y="-233.95" font-family="monospace" font-size="14.00"> &#160;2: GetByIdShort &#160;&#160;&#160;&#160;&#160;r3, r4, 2, &quot;log&quot;</text>
<text xml:space="preserve" text-anchor="start" x="758.62" y="-216.7" font-family="monospace" font-size="14.00"> &#160;3: LoadFromEnvironment r2, r0, 0</text>
<text xml:space="preserve" text-anchor="start" x="758.62" y="-199.45" font-family="monospace" font-size="14.00"> &#160;4: Call2 &#160;&#160;&#160;&#160;&#160;&#160;&#160;&#160;&#160;&#160;&#160;&#160;r2, r3, r4, r2</text>
<text xml:space="preserve" text-anchor="start" x="758.62" y="-182.2" font-family="monospace" font-size="14.00"> &#160;5: TryGetById &#160;&#160;&#160;&#160;&#160;&#160;&#160;r2, r1, 1, &quot;console&quot;</text>
<text xml:space="preserve" text-anchor="start" x="758.62" y="-164.95" font-family="monospace" font-size="14.00"> &#160;6: GetByIdShort &#160;&#160;&#160;&#160;&#160;r1, r2, 2, &quot;log&quot;</text>
<text xml:space="preserve" text-anchor="start" x="758.62" y="-147.7" font-family="monospace" font-size="14.00"> &#160;7: LoadFromEnvironment r0, r0, 1</text>
<text xml:space="preserve" text-anchor="start" x="758.62" y="-130.45" font-family="monospace" font-size="14.00"> &#160;8: Call2 &#160;&#160;&#160;&#160;&#160;&#160;&#160;&#160;&#160;&#160;&#160;&#160;r0, r1, r2, r0</text>
<text xml:space="preserve" text-anchor="start" x="758.62" y="-113.2" font-family="monospace" font-size="14.00"> &#160;9: LoadConstUndefined r0</text>
<text xml:space="preserve" text-anchor="start" x="758.62" y="-95.95" font-family="monospace" font-size="14.00"> &#160;10: Ret &#160;&#160;&#160;&#160;&#160;&#160;&#160;&#160;&#160;&#160;&#160;&#160;&#160;&#160;r0</text>
</g>
<!-- f1_n0&#45;&gt;f1_n3 -->
<g id="edge2" class="edge">
<title>f1_n0&#45;&gt;f1_n3</title>
<path fill="none" stroke="black" d="M819.74,-486.14C833.36,-459.99 849.26,-428.12 862,-398.75 873.74,-371.68 885.28,-342.08 895.62,-314.08"/>
<polygon fill="black" stroke="black" points="898.84,-315.45 899,-304.86 892.27,-313.04 898.84,-315.45"/>
</g>
<!-- f1_n2 -->
<g id="node5" class="node">
<title>f1_n2</title>
<polygon fill="none" stroke="black" points="732.25,-259.88 435.75,-259.88 435.75,-131.12 732.25,-131.12 732.25,-259.88"/>
<text xml:space="preserve" text-anchor="start" x="443.75" y="-242.57" font-family="monospace" font-size="14.00">Block 2 (PC 7&#45;13)</text>
<text xml:space="preserve" text-anchor="start" x="443.75" y="-225.32" font-family="monospace" font-size="14.00"> &#160;0: Mov &#160;&#160;&#160;&#160;&#160;&#160;&#160;&#160;&#160;&#160;&#160;&#160;&#160;&#160;r9, r1</text>
<text xml:space="preserve" text-anchor="start" x="443.75" y="-208.07" font-family="monospace" font-size="14.00"> &#160;1: LoadFromEnvironment r8, r0, 1</text>
<text xml:space="preserve" text-anchor="start" x="443.75" y="-190.82" font-family="monospace" font-size="14.00"> &#160;2: GetByVal &#160;&#160;&#160;&#160;&#160;&#160;&#160;&#160;&#160;r7, r8, r9</text>
<text xml:space="preserve" text-anchor="start" x="443.75" y="-173.57" font-family="monospace" font-size="14.00"> &#160;3: Add &#160;&#160;&#160;&#160;&#160;&#160;&#160;&#160;&#160;&#160;&#160;&#160;&#160;&#160;r7, r7, r6</text>
<text xml:space="preserve" text-anchor="start" x="443.75" y="-156.32" font-family="monospace" font-size="14.00"> &#160;4: PutByVal &#160;&#160;&#160;&#160;&#160;&#160;&#160;&#160;&#160;r8, r9, r7</text>
<text xml:space="preserve" text-anchor="start" x="443.75" y="-139.07" font-family="monospace" font-size="14.00"> &#160;5: Jmp &#160;&#160;&#160;&#160;&#160;&#160;&#160;&#160;&#160;&#160;&#160;&#160;&#160;&#160;L2</text>
</g>
<!-- f1_n1&#45;&gt;f1_n2 -->
<g id="edge5" class="edge">
<title>f1_n1&#45;&gt;f1_n2</title>
<path fill="none" stroke="black" d="M655.18,-338.8C643.82,-319.92 629.62,-294.39 616.86,-270.17"/>
<polygon fill="black" stroke="black" points="620.11,-268.84 612.38,-261.6 613.91,-272.08 620.11,-268.84"/>
</g>
<!-- f1_n1&#45;&gt;f1_n3 -->
<g id="edge4" class="edge">
<title>f1_n1&#45;&gt;f1_n3</title>
<path fill="none" stroke="black" d="M720.4,-338.61C733.37,-330.06 748.39,-320.16 764.35,-309.64"/>
<polygon fill="black" stroke="black" points="766.16,-312.64 772.58,-304.22 762.3,-306.8 766.16,-312.64"/>
</g>
<!-- f1_n2&#45;&gt;f1_n1 -->
<g id="edge6" class="edge">
<title>f1_n2&#45;&gt;f1_n1</title>
<path fill="none" stroke="black" d="M624.78,-260.26C637.54,-283.23 650.82,-308.45 660.75,-328.71"/>
<polygon fill="black" stroke="black" points="657.46,-329.95 664.95,-337.44 663.77,-326.91 657.46,-329.95"/>
</g>
<!-- f1_n4 -->
<g id="node7" class="node">
<title>f1_n4</title>
<polygon fill="none" stroke="black" points="963,-52 909,-52 909,-16 963,-16 963,-52"/>
<text xml:space="preserve" text-anchor="middle" x="936" y="-29.32" font-family="monospace" font-size="14.00">EXIT</text>
</g>
<!-- f1_n3&#45;&gt;f1_n4 -->
<g id="edge7" class="edge">
<title>f1_n3&#45;&gt;f1_n4</title>
<path fill="none" stroke="black" d="M936,-87.67C936,-79.05 936,-70.91 936,-63.72"/>
<polygon fill="black" stroke="black" points="939.5,-63.78 936,-53.78 932.5,-63.78 939.5,-63.78"/>
</g>
</g>
</svg>
