<?xml version="1.0" encoding="UTF-8" standalone="no"?>
<!DOCTYPE svg PUBLIC "-//W3C//DTD SVG 1.1//EN"
 "http://www.w3.org/Graphics/SVG/1.1/DTD/svg11.dtd">
<!-- Generated by graphviz version 13.1.0 (20250701.0955)
 -->
<!-- Pages: 1 -->
<svg width="1145pt" height="742pt"
 viewBox="0.00 0.00 1145.00 742.00" xmlns="http://www.w3.org/2000/svg" xmlns:xlink="http://www.w3.org/1999/xlink">
<g id="graph0" class="graph" transform="scale(1 1) rotate(0) translate(4 738.25)">
<polygon fill="white" stroke="none" points="-4,4 -4,-738.25 1141,-738.25 1141,4 -4,4"/>
<g id="clust1" class="cluster">
<title>cluster_function_0</title>
<polygon fill="lightgrey" stroke="lightgrey" points="8,-239.38 8,-726.25 420,-726.25 420,-239.38 8,-239.38"/>
<text xml:space="preserve" text-anchor="middle" x="214" y="-708.95" font-family="Times,serif" font-size="14.00">Function 0</text>
</g>
<g id="clust2" class="cluster">
<title>cluster_function_1</title>
<polygon fill="lightgrey" stroke="lightgrey" points="428,-8 428,-683.12 1129,-683.12 1129,-8 428,-8"/>
<text xml:space="preserve" text-anchor="middle" x="778.5" y="-665.83" font-family="Times,serif" font-size="14.00">Function 1</text>
</g>
<!-- f0_n0 -->
<g id="node1" class="node">
<title>f0_n0</title>
<polygon fill="none" stroke="black" points="411.75,-693.75 16.25,-693.75 16.25,-496 411.75,-496 411.75,-693.75"/>
<text xml:space="preserve" text-anchor="start" x="24.25" y="-676.45" font-family="monospace" font-size="14.00">Block 0 (PC 0&#45;10)</text>
<text xml:space="preserve" text-anchor="start" x="24.25" y="-659.2" font-family="monospace" font-size="14.00"> &#160;0: DeclareGlobalVar &#160;&quot;main&quot;</text>
<text xml:space="preserve" text-anchor="start" x="24.25" y="-641.95" font-family="monospace" font-size="14.00"> &#160;1: CreateEnvironment r1</text>
<text xml:space="preserve" text-anchor="start" x="24.25" y="-624.7" font-family="monospace" font-size="14.00"> &#160;2: CreateClosure &#160;&#160;&#160;&#160;r2, r1, Function&lt;main&gt;1</text>
<text xml:space="preserve" text-anchor="start" x="24.25" y="-607.45" font-family="monospace" font-size="14.00"> &#160;3: GetGlobalObject &#160;&#160;r0</text>
<text xml:space="preserve" text-anchor="start" x="24.25" y="-590.2" font-family="monospace" font-size="14.00"> &#160;4: PutById &#160;&#160;&#160;&#160;&#160;&#160;&#160;&#160;&#160;&#160;r0, r2, 1, &quot;main&quot;</text>
<text xml:space="preserve" text-anchor="start" x="24.25" y="-572.95" font-family="monospace" font-size="14.00"> &#160;5: NewArrayWithBuffer r0, 360, 360, 0</text>
<text xml:space="preserve" text-anchor="start" x="24.25" y="-555.7" font-family="monospace" font-size="14.00"> &#160;6: StoreToEnvironment r1, 0, r0</text>
<text xml:space="preserve" text-anchor="start" x="24.25" y="-538.45" font-family="monospace" font-size="14.00"> &#160;7: NewObjectWithBuffer r0, 12, 12, 0, 0</text>
<text xml:space="preserve" text-anchor="start" x="24.25" y="-521.2" font-family="monospace" font-size="14.00"> &#160;8: StoreToEnvironment r1, 1, r0</text>
<text xml:space="preserve" text-anchor="start" x="24.25" y="-503.95" font-family="monospace" font-size="14.00"> &#160;9: LoadConstUndefined r0</text>
</g>
<!-- f0_n1 -->
<g id="node2" class="node">
<title>f0_n1</title>
<polygon fill="none" stroke="black" points="325.12,-451.38 102.88,-451.38 102.88,-408.88 325.12,-408.88 325.12,-451.38"/>
<text xml:space="preserve" text-anchor="start" x="110.88" y="-434.07" font-family="monospace" font-size="14.00">Block 1 (PC 10&#45;11)</text>
<text xml:space="preserve" text-anchor="start" x="110.88" y="-416.82" font-family="monospace" font-size="14.00"> &#160;0: Ret &#160;&#160;&#160;&#160;&#160;&#160;&#160;&#160;&#160;&#160;&#160;&#160;&#160;&#160;r0</text>
</g>
<!-- f0_n0&#45;&gt;f0_n1 -->
<g id="edge1" class="edge">
<title>f0_n0&#45;&gt;f0_n1</title>
<path fill="none" stroke="black" d="M214,-495.92C214,-484.18 214,-472.92 214,-463.18"/>
<polygon fill="black" stroke="black" points="217.5,-463.24 214,-453.24 210.5,-463.24 217.5,-463.24"/>
</g>
<!-- f0_n2 -->
<g id="node3" class="node">
<title>f0_n2</title>
<polygon fill="none" stroke="black" points="241,-283.38 187,-283.38 187,-247.38 241,-247.38 241,-283.38"/>
<text xml:space="preserve" text-anchor="middle" x="214" y="-260.7" font-family="monospace" font-size="14.00">EXIT</text>
</g>
<!-- f0_n1&#45;&gt;f0_n2 -->
<g id="edge2" class="edge">
<title>f0_n1&#45;&gt;f0_n2</title>
<path fill="none" stroke="black" d="M214,-408.51C214,-379.84 214,-327.8 214,-295.27"/>
<polygon fill="black" stroke="black" points="217.5,-295.36 214,-285.36 210.5,-295.36 217.5,-295.36"/>
</g>
<!-- f1_n0 -->
<g id="node4" class="node">
<title>f1_n0</title>
<polygon fill="none" stroke="black" points="954.75,-650.62 625.25,-650.62 625.25,-539.12 954.75,-539.12 954.75,-650.62"/>
<text xml:space="preserve" text-anchor="start" x="633.25" y="-633.33" font-family="monospace" font-size="14.00">Block 0 (PC 0&#45;5)</text>
<text xml:space="preserve" text-anchor="start" x="633.25" y="-616.08" font-family="monospace" font-size="14.00"> &#160;0: GetEnvironment &#160;&#160;&#160;r0, 0</text>
<text xml:space="preserve" text-anchor="start" x="633.25" y="-598.83" font-family="monospace" font-size="14.00"> &#160;1: LoadFromEnvironment r5, r0, 1</text>
<text xml:space="preserve" text-anchor="start" x="633.25" y="-581.58" font-family="monospace" font-size="14.00"> &#160;2: LoadConstString &#160;&#160;r1, &quot;_modified&quot;</text>
<text xml:space="preserve" text-anchor="start" x="633.25" y="-564.33" font-family="monospace" font-size="14.00"> &#160;3: GetPNameList &#160;&#160;&#160;&#160;&#160;r6, r5, r4, r3</text>
<text xml:space="preserve" text-anchor="start" x="633.25" y="-547.08" font-family="monospace" font-size="14.00"> &#160;4: JmpUndefined &#160;&#160;&#160;&#160;&#160;L1, r6</text>
</g>
<!-- f1_n1 -->
<g id="node5" class="node">
<title>f1_n1</title>
<polygon fill="none" stroke="black" points="853.12,-460 498.88,-460 498.88,-400.25 853.12,-400.25 853.12,-460"/>
<text xml:space="preserve" text-anchor="start" x="506.88" y="-442.7" font-family="monospace" font-size="14.00">Block 1 (PC 5&#45;7)</text>
<text xml:space="preserve" text-anchor="start" x="506.88" y="-425.45" font-family="monospace" font-size="14.00"> &#160;0: GetNextPName &#160;&#160;&#160;&#160;&#160;r2, r6, r5, r4, r3</text>
<text xml:space="preserve" text-anchor="start" x="506.88" y="-408.2" font-family="monospace" font-size="14.00"> &#160;1: JmpUndefined &#160;&#160;&#160;&#160;&#160;L1, r2</text>
</g>
<!-- f1_n0&#45;&gt;f1_n1 -->
<g id="edge4" class="edge">
<title>f1_n0&#45;&gt;f1_n1</title>
<path fill="none" stroke="black" d="M751.4,-538.78C735.46,-516.01 717.35,-490.16 702.89,-469.51"/>
<polygon fill="black" stroke="black" points="705.78,-467.54 697.18,-461.36 700.05,-471.55 705.78,-467.54"/>
</g>
<!-- f1_n3 -->
<g id="node7" class="node">
<title>f1_n3</title>
<polygon fill="none" stroke="black" points="1121.38,-364.25 750.62,-364.25 750.62,-166.5 1121.38,-166.5 1121.38,-364.25"/>
<text xml:space="preserve" text-anchor="start" x="758.62" y="-346.95" font-family="monospace" font-size="14.00">Block 3 (PC 13&#45;23)</text>
<text xml:space="preserve" text-anchor="start" x="758.62" y="-329.7" font-family="monospace" font-size="14.00"> &#160;0: GetGlobalObject &#160;&#160;r1</text>
<text xml:space="preserve" text-anchor="start" x="758.62" y="-312.45" font-family="monospace" font-size="14.00"> &#160;1: TryGetById &#160;&#160;&#160;&#160;&#160;&#160;&#160;r4, r1, 1, &quot;console&quot;</text>
<text xml:space="preserve" text-anchor="start" x="758.62" y="-295.2" font-family="monospace" font-size="14.00"> &#160;2: GetByIdShort &#160;&#160;&#160;&#160;&#160;r3, r4, 2, &quot;log&quot;</text>
<text xml:space="preserve" text-anchor="start" x="758.62" y="-277.95" font-family="monospace" font-size="14.00"> &#160;3: LoadFromEnvironment r2, r0, 0</text>
<text xml:space="preserve" text-anchor="start" x="758.62" y="-260.7" font-family="monospace" font-size="14.00"> &#160;4: Call2 &#160;&#160;&#160;&#160;&#160;&#160;&#160;&#160;&#160;&#160;&#160;&#160;r2, r3, r4, r2</text>
<text xml:space="preserve" text-anchor="start" x="758.62" y="-243.45" font-family="monospace" font-size="14.00"> &#160;5: TryGetById &#160;&#160;&#160;&#160;&#160;&#160;&#160;r2, r1, 1, &quot;console&quot;</text>
<text xml:space="preserve" text-anchor="start" x="758.62" y="-226.2" font-family="monospace" font-size="14.00"> &#160;6: GetByIdShort &#160;&#160;&#160;&#160;&#160;r1, r2, 2, &quot;log&quot;</text>
<text xml:space="preserve" text-anchor="start" x="758.62" y="-208.95" font-family="monospace" font-size="14.00"> &#160;7: LoadFromEnvironment r0, r0, 1</text>
<text xml:space="preserve" text-anchor="start" x="758.62" y="-191.7" font-family="monospace" font-size="14.00"> &#160;8: Call2 &#160;&#160;&#160;&#160;&#160;&#160;&#160;&#160;&#160;&#160;&#160;&#160;r0, r1, r2, r0</text>
<text xml:space="preserve" text-anchor="start" x="758.62" y="-174.45" font-family="monospace" font-size="14.00"> &#160;9: LoadConstUndefined r0</text>
</g>
<!-- f1_n0&#45;&gt;f1_n3 -->
<g id="edge3" class="edge">
<title>f1_n0&#45;&gt;f1_n3</title>
<path fill="none" stroke="black" d="M821.75,-538.67C834.93,-514.83 849.92,-486.4 862,-460 874.42,-432.87 886.55,-403.01 897.29,-375.02"/>
<polygon fill="black" stroke="black" points="900.51,-376.4 900.79,-365.81 893.96,-373.91 900.51,-376.4"/>
</g>
<!-- f1_n2 -->
<g id="node6" class="node">
<title>f1_n2</title>
<polygon fill="none" stroke="black" points="732.25,-329.75 435.75,-329.75 435.75,-201 732.25,-201 732.25,-329.75"/>
<text xml:space="preserve" text-anchor="start" x="443.75" y="-312.45" font-family="monospace" font-size="14.00">Block 2 (PC 7&#45;13)</text>
<text xml:space="preserve" text-anchor="start" x="443.75" y="-295.2" font-family="monospace" font-size="14.00"> &#160;0: Mov &#160;&#160;&#160;&#160;&#160;&#160;&#160;&#160;&#160;&#160;&#160;&#160;&#160;&#160;r9, r2</text>
<text xml:space="preserve" text-anchor="start" x="443.75" y="-277.95" font-family="monospace" font-size="14.00"> &#160;1: LoadFromEnvironment r8, r0, 1</text>
<text xml:space="preserve" text-anchor="start" x="443.75" y="-260.7" font-family="monospace" font-size="14.00"> &#160;2: GetByVal &#160;&#160;&#160;&#160;&#160;&#160;&#160;&#160;&#160;r7, r8, r9</text>
<text xml:space="preserve" text-anchor="start" x="443.75" y="-243.45" font-family="monospace" font-size="14.00"> &#160;3: Add &#160;&#160;&#160;&#160;&#160;&#160;&#160;&#160;&#160;&#160;&#160;&#160;&#160;&#160;r7, r7, r1</text>
<text xml:space="preserve" text-anchor="start" x="443.75" y="-226.2" font-family="monospace" font-size="14.00"> &#160;4: PutByVal &#160;&#160;&#160;&#160;&#160;&#160;&#160;&#160;&#160;r8, r9, r7</text>
<text xml:space="preserve" text-anchor="start" x="443.75" y="-208.95" font-family="monospace" font-size="14.00"> &#160;5: Jmp &#160;&#160;&#160;&#160;&#160;&#160;&#160;&#160;&#160;&#160;&#160;&#160;&#160;&#160;L2</text>
</g>
<!-- f1_n1&#45;&gt;f1_n2 -->
<g id="edge6" class="edge">
<title>f1_n1&#45;&gt;f1_n2</title>
<path fill="none" stroke="black" d="M654.24,-400.03C643.64,-383.22 630.75,-361.24 618.89,-339.98"/>
<polygon fill="black" stroke="black" points="621.97,-338.33 614.07,-331.28 615.85,-341.72 621.97,-338.33"/>
</g>
<!-- f1_n1&#45;&gt;f1_n3 -->
<g id="edge5" class="edge">
<title>f1_n1&#45;&gt;f1_n3</title>
<path fill="none" stroke="black" d="M722.78,-399.84C736.6,-391.19 752.58,-381.19 769.45,-370.63"/>
<polygon fill="black" stroke="black" points="771.01,-373.78 777.63,-365.51 767.29,-367.85 771.01,-373.78"/>
</g>
<!-- f1_n2&#45;&gt;f1_n1 -->
<g id="edge7" class="edge">
<title>f1_n2&#45;&gt;f1_n1</title>
<path fill="none" stroke="black" d="M626.55,-329.96C638.31,-350.18 650.37,-371.95 659.71,-389.92"/>
<polygon fill="black" stroke="black" points="656.52,-391.37 664.18,-398.68 662.75,-388.18 656.52,-391.37"/>
</g>
<!-- f1_n4 -->
<g id="node8" class="node">
<title>f1_n4</title>
<polygon fill="none" stroke="black" points="1047.12,-130.5 824.88,-130.5 824.88,-88 1047.12,-88 1047.12,-130.5"/>
<text xml:space="preserve" text-anchor="start" x="832.88" y="-113.2" font-family="monospace" font-size="14.00">Block 4 (PC 23&#45;24)</text>
<text xml:space="preserve" text-anchor="start" x="832.88" y="-95.95" font-family="monospace" font-size="14.00"> &#160;0: Ret &#160;&#160;&#160;&#160;&#160;&#160;&#160;&#160;&#160;&#160;&#160;&#160;&#160;&#160;r0</text>
</g>
<!-- f1_n3&#45;&gt;f1_n4 -->
<g id="edge8" class="edge">
<title>f1_n3&#45;&gt;f1_n4</title>
<path fill="none" stroke="black" d="M936,-166.33C936,-157.81 936,-149.66 936,-142.34"/>
<polygon fill="black" stroke="black" points="939.5,-142.41 936,-132.41 932.5,-142.41 939.5,-142.41"/>
</g>
<!-- f1_n5 -->
<g id="node9" class="node">
<title>f1_n5</title>
<polygon fill="none" stroke="black" points="963,-52 909,-52 909,-16 963,-16 963,-52"/>
<text xml:space="preserve" text-anchor="middle" x="936" y="-29.32" font-family="monospace" font-size="14.00">EXIT</text>
</g>
<!-- f1_n4&#45;&gt;f1_n5 -->
<g id="edge9" class="edge">
<title>f1_n4&#45;&gt;f1_n5</title>
<path fill="none" stroke="black" d="M936,-87.85C936,-80.34 936,-71.69 936,-63.59"/>
<polygon fill="black" stroke="black" points="939.5,-63.83 936,-53.83 932.5,-63.83 939.5,-63.83"/>
</g>
</g>
</svg>
