<?xml version="1.0" encoding="UTF-8" standalone="no"?>
<!DOCTYPE svg PUBLIC "-//W3C//DTD SVG 1.1//EN"
 "http://www.w3.org/Graphics/SVG/1.1/DTD/svg11.dtd">
<!-- Generated by graphviz version 13.1.0 (20250701.0955)
 -->
<!-- Pages: 1 -->
<svg width="1145pt" height="748pt"
 viewBox="0.00 0.00 1145.00 748.00" xmlns="http://www.w3.org/2000/svg" xmlns:xlink="http://www.w3.org/1999/xlink">
<g id="graph0" class="graph" transform="scale(1 1) rotate(0) translate(4 743.75)">
<polygon fill="white" stroke="none" points="-4,4 -4,-743.75 1141,-743.75 1141,4 -4,4"/>
<g id="clust1" class="cluster">
<title>cluster_function_0</title>
<polygon fill="lightgrey" stroke="lightgrey" points="8,-375.88 8,-731.75 420,-731.75 420,-375.88 8,-375.88"/>
<text xml:space="preserve" text-anchor="middle" x="214" y="-714.45" font-family="Times,serif" font-size="14.00">Function 0</text>
</g>
<g id="clust2" class="cluster">
<title>cluster_function_1</title>
<polygon fill="lightgrey" stroke="lightgrey" points="428,-8 428,-680 1129,-680 1129,-8 428,-8"/>
<text xml:space="preserve" text-anchor="middle" x="778.5" y="-662.7" font-family="Times,serif" font-size="14.00">Function 1</text>
</g>
<!-- f0_n0 -->
<g id="node1" class="node">
<title>f0_n0</title>
<polygon fill="none" stroke="black" points="411.75,-699.25 16.25,-699.25 16.25,-484.25 411.75,-484.25 411.75,-699.25"/>
<text xml:space="preserve" text-anchor="start" x="24.25" y="-681.95" font-family="monospace" font-size="14.00">Block 0 (PC 0&#45;11)</text>
<text xml:space="preserve" text-anchor="start" x="24.25" y="-664.7" font-family="monospace" font-size="14.00"> &#160;0: DeclareGlobalVar &#160;&quot;main&quot;</text>
<text xml:space="preserve" text-anchor="start" x="24.25" y="-647.45" font-family="monospace" font-size="14.00"> &#160;1: CreateEnvironment r1</text>
<text xml:space="preserve" text-anchor="start" x="24.25" y="-630.2" font-family="monospace" font-size="14.00"> &#160;2: CreateClosure &#160;&#160;&#160;&#160;r2, r1, Function&lt;main&gt;1</text>
<text xml:space="preserve" text-anchor="start" x="24.25" y="-612.95" font-family="monospace" font-size="14.00"> &#160;3: GetGlobalObject &#160;&#160;r0</text>
<text xml:space="preserve" text-anchor="start" x="24.25" y="-595.7" font-family="monospace" font-size="14.00"> &#160;4: PutById &#160;&#160;&#160;&#160;&#160;&#160;&#160;&#160;&#160;&#160;r0, r2, 1, &quot;main&quot;</text>
<text xml:space="preserve" text-anchor="start" x="24.25" y="-578.45" font-family="monospace" font-size="14.00"> &#160;5: NewArrayWithBuffer r0, 360, 360, 0</text>
<text xml:space="preserve" text-anchor="start" x="24.25" y="-561.2" font-family="monospace" font-size="14.00"> &#160;6: StoreToEnvironment r1, 0, r0</text>
<text xml:space="preserve" text-anchor="start" x="24.25" y="-543.95" font-family="monospace" font-size="14.00"> &#160;7: NewObjectWithBuffer r0, 12, 12, 0, 0</text>
<text xml:space="preserve" text-anchor="start" x="24.25" y="-526.7" font-family="monospace" font-size="14.00"> &#160;8: StoreToEnvironment r1, 1, r0</text>
<text xml:space="preserve" text-anchor="start" x="24.25" y="-509.45" font-family="monospace" font-size="14.00"> &#160;9: LoadConstUndefined r0</text>
<text xml:space="preserve" text-anchor="start" x="24.25" y="-492.2" font-family="monospace" font-size="14.00"> &#160;10: Ret &#160;&#160;&#160;&#160;&#160;&#160;&#160;&#160;&#160;&#160;&#160;&#160;&#160;&#160;r0</text>
</g>
<!-- f0_n1 -->
<g id="node2" class="node">
<title>f0_n1</title>
<polygon fill="none" stroke="black" points="241,-419.88 187,-419.88 187,-383.88 241,-383.88 241,-419.88"/>
<text xml:space="preserve" text-anchor="middle" x="214" y="-397.2" font-family="monospace" font-size="14.00">EXIT</text>
</g>
<!-- f0_n0&#45;&gt;f0_n1 -->
<g id="edge1" class="edge">
<title>f0_n0&#45;&gt;f0_n1</title>
<path fill="none" stroke="black" d="M214,-483.91C214,-464.55 214,-445.93 214,-431.44"/>
<polygon fill="black" stroke="black" points="217.5,-431.82 214,-421.82 210.5,-431.82 217.5,-431.82"/>
<text xml:space="preserve" text-anchor="middle" x="233.88" y="-452.95" font-family="Times,serif" font-size="14.00">uncond</text>
</g>
<!-- f1_n0 -->
<g id="node3" class="node">
<title>f1_n0</title>
<polygon fill="none" stroke="black" points="970.75,-647.5 641.25,-647.5 641.25,-536 970.75,-536 970.75,-647.5"/>
<text xml:space="preserve" text-anchor="start" x="649.25" y="-630.2" font-family="monospace" font-size="14.00">Block 0 (PC 0&#45;5)</text>
<text xml:space="preserve" text-anchor="start" x="649.25" y="-612.95" font-family="monospace" font-size="14.00"> &#160;0: LoadConstString &#160;&#160;r6, &quot;_modified&quot;</text>
<text xml:space="preserve" text-anchor="start" x="649.25" y="-595.7" font-family="monospace" font-size="14.00"> &#160;1: GetEnvironment &#160;&#160;&#160;r0, 0</text>
<text xml:space="preserve" text-anchor="start" x="649.25" y="-578.45" font-family="monospace" font-size="14.00"> &#160;2: LoadFromEnvironment r4, r0, 1</text>
<text xml:space="preserve" text-anchor="start" x="649.25" y="-561.2" font-family="monospace" font-size="14.00"> &#160;3: GetPNameList &#160;&#160;&#160;&#160;&#160;r5, r4, r3, r2</text>
<text xml:space="preserve" text-anchor="start" x="649.25" y="-543.95" font-family="monospace" font-size="14.00"> &#160;4: JmpUndefined &#160;&#160;&#160;&#160;&#160;L1, r5</text>
</g>
<!-- f1_n1 -->
<g id="node4" class="node">
<title>f1_n1</title>
<polygon fill="none" stroke="black" points="857.12,-431.75 502.88,-431.75 502.88,-372 857.12,-372 857.12,-431.75"/>
<text xml:space="preserve" text-anchor="start" x="510.88" y="-414.45" font-family="monospace" font-size="14.00">Block 1 (PC 5&#45;7) [L2]</text>
<text xml:space="preserve" text-anchor="start" x="510.88" y="-397.2" font-family="monospace" font-size="14.00"> &#160;0: GetNextPName &#160;&#160;&#160;&#160;&#160;r1, r5, r4, r3, r2</text>
<text xml:space="preserve" text-anchor="start" x="510.88" y="-379.95" font-family="monospace" font-size="14.00"> &#160;1: JmpUndefined &#160;&#160;&#160;&#160;&#160;L1, r1</text>
</g>
<!-- f1_n0&#45;&gt;f1_n1 -->
<g id="edge3" class="edge">
<title>f1_n0&#45;&gt;f1_n1</title>
<path fill="none" stroke="black" d="M769.05,-535.65C748.8,-505.47 724.21,-468.79 706,-441.64"/>
<polygon fill="black" stroke="black" points="708.92,-439.71 700.44,-433.35 703.1,-443.61 708.92,-439.71"/>
<text xml:space="preserve" text-anchor="middle" x="733.51" y="-452.95" font-family="Times,serif" font-size="14.00">false</text>
</g>
<!-- f1_n3 -->
<g id="node6" class="node">
<title>f1_n3</title>
<polygon fill="none" stroke="black" points="1121.38,-319.5 750.62,-319.5 750.62,-104.5 1121.38,-104.5 1121.38,-319.5"/>
<text xml:space="preserve" text-anchor="start" x="758.62" y="-302.2" font-family="monospace" font-size="14.00">Block 3 (PC 13&#45;24) [L1]</text>
<text xml:space="preserve" text-anchor="start" x="758.62" y="-284.95" font-family="monospace" font-size="14.00"> &#160;0: GetGlobalObject &#160;&#160;r1</text>
<text xml:space="preserve" text-anchor="start" x="758.62" y="-267.7" font-family="monospace" font-size="14.00"> &#160;1: TryGetById &#160;&#160;&#160;&#160;&#160;&#160;&#160;r4, r1, 1, &quot;console&quot;</text>
<text xml:space="preserve" text-anchor="start" x="758.62" y="-250.45" font-family="monospace" font-size="14.00"> &#160;2: GetByIdShort &#160;&#160;&#160;&#160;&#160;r3, r4, 2, &quot;log&quot;</text>
<text xml:space="preserve" text-anchor="start" x="758.62" y="-233.2" font-family="monospace" font-size="14.00"> &#160;3: LoadFromEnvironment r2, r0, 0</text>
<text xml:space="preserve" text-anchor="start" x="758.62" y="-215.95" font-family="monospace" font-size="14.00"> &#160;4: Call2 &#160;&#160;&#160;&#160;&#160;&#160;&#160;&#160;&#160;&#160;&#160;&#160;r2, r3, r4, r2</text>
<text xml:space="preserve" text-anchor="start" x="758.62" y="-198.7" font-family="monospace" font-size="14.00"> &#160;5: TryGetById &#160;&#160;&#160;&#160;&#160;&#160;&#160;r2, r1, 1, &quot;console&quot;</text>
<text xml:space="preserve" text-anchor="start" x="758.62" y="-181.45" font-family="monospace" font-size="14.00"> &#160;6: GetByIdShort &#160;&#160;&#160;&#160;&#160;r1, r2, 2, &quot;log&quot;</text>
<text xml:space="preserve" text-anchor="start" x="758.62" y="-164.2" font-family="monospace" font-size="14.00"> &#160;7: LoadFromEnvironment r0, r0, 1</text>
<text xml:space="preserve" text-anchor="start" x="758.62" y="-146.95" font-family="monospace" font-size="14.00"> &#160;8: Call2 &#160;&#160;&#160;&#160;&#160;&#160;&#160;&#160;&#160;&#160;&#160;&#160;r0, r1, r2, r0</text>
<text xml:space="preserve" text-anchor="start" x="758.62" y="-129.7" font-family="monospace" font-size="14.00"> &#160;9: LoadConstUndefined r0</text>
<text xml:space="preserve" text-anchor="start" x="758.62" y="-112.45" font-family="monospace" font-size="14.00"> &#160;10: Ret &#160;&#160;&#160;&#160;&#160;&#160;&#160;&#160;&#160;&#160;&#160;&#160;&#160;&#160;r0</text>
</g>
<!-- f1_n0&#45;&gt;f1_n3 -->
<g id="edge2" class="edge">
<title>f1_n0&#45;&gt;f1_n3</title>
<path fill="none" stroke="black" d="M827.52,-535.81C839.28,-505.3 853.87,-466.58 866,-431.75 877.39,-399.05 889.11,-363.36 899.63,-330.47"/>
<polygon fill="black" stroke="black" points="902.84,-331.93 902.54,-321.34 896.17,-329.8 902.84,-331.93"/>
<text xml:space="preserve" text-anchor="middle" x="895.57" y="-396.82" font-family="Times,serif" font-size="14.00">true</text>
</g>
<!-- f1_n2 -->
<g id="node5" class="node">
<title>f1_n2</title>
<polygon fill="none" stroke="black" points="732.25,-276.38 435.75,-276.38 435.75,-147.62 732.25,-147.62 732.25,-276.38"/>
<text xml:space="preserve" text-anchor="start" x="443.75" y="-259.07" font-family="monospace" font-size="14.00">Block 2 (PC 7&#45;13)</text>
<text xml:space="preserve" text-anchor="start" x="443.75" y="-241.82" font-family="monospace" font-size="14.00"> &#160;0: Mov &#160;&#160;&#160;&#160;&#160;&#160;&#160;&#160;&#160;&#160;&#160;&#160;&#160;&#160;r9, r1</text>
<text xml:space="preserve" text-anchor="start" x="443.75" y="-224.57" font-family="monospace" font-size="14.00"> &#160;1: LoadFromEnvironment r8, r0, 1</text>
<text xml:space="preserve" text-anchor="start" x="443.75" y="-207.32" font-family="monospace" font-size="14.00"> &#160;2: GetByVal &#160;&#160;&#160;&#160;&#160;&#160;&#160;&#160;&#160;r7, r8, r9</text>
<text xml:space="preserve" text-anchor="start" x="443.75" y="-190.07" font-family="monospace" font-size="14.00"> &#160;3: Add &#160;&#160;&#160;&#160;&#160;&#160;&#160;&#160;&#160;&#160;&#160;&#160;&#160;&#160;r7, r7, r6</text>
<text xml:space="preserve" text-anchor="start" x="443.75" y="-172.82" font-family="monospace" font-size="14.00"> &#160;4: PutByVal &#160;&#160;&#160;&#160;&#160;&#160;&#160;&#160;&#160;r8, r9, r7</text>
<text xml:space="preserve" text-anchor="start" x="443.75" y="-155.57" font-family="monospace" font-size="14.00"> &#160;5: Jmp &#160;&#160;&#160;&#160;&#160;&#160;&#160;&#160;&#160;&#160;&#160;&#160;&#160;&#160;L2</text>
</g>
<!-- f1_n1&#45;&gt;f1_n2 -->
<g id="edge5" class="edge">
<title>f1_n1&#45;&gt;f1_n2</title>
<path fill="none" stroke="black" d="M665,-371.52C653.39,-348.8 636.79,-316.32 621.64,-286.67"/>
<polygon fill="black" stroke="black" points="624.92,-285.4 617.26,-278.08 618.69,-288.58 624.92,-285.4"/>
<text xml:space="preserve" text-anchor="middle" x="667" y="-340.7" font-family="Times,serif" font-size="14.00">false</text>
</g>
<!-- f1_n1&#45;&gt;f1_n3 -->
<g id="edge4" class="edge">
<title>f1_n1&#45;&gt;f1_n3</title>
<path fill="none" stroke="black" d="M720,-371.52C737.26,-358.86 758.65,-343.16 781.2,-326.6"/>
<polygon fill="black" stroke="black" points="783.03,-329.61 789.02,-320.87 778.89,-323.96 783.03,-329.61"/>
<text xml:space="preserve" text-anchor="middle" x="773.3" y="-340.7" font-family="Times,serif" font-size="14.00">true</text>
</g>
<!-- f1_n2&#45;&gt;f1_n1 -->
<g id="edge6" class="edge">
<title>f1_n2&#45;&gt;f1_n1</title>
<path fill="none" stroke="black" d="M582.34,-276.76C584.41,-302.52 590.46,-331.43 605.25,-354 607.57,-357.54 610.26,-360.86 613.21,-363.97"/>
<polygon fill="black" stroke="black" points="610.74,-366.45 620.46,-370.68 615.5,-361.32 610.74,-366.45"/>
<text xml:space="preserve" text-anchor="middle" x="625.12" y="-340.7" font-family="Times,serif" font-size="14.00">uncond</text>
</g>
<!-- f1_n4 -->
<g id="node7" class="node">
<title>f1_n4</title>
<polygon fill="none" stroke="black" points="963,-52 909,-52 909,-16 963,-16 963,-52"/>
<text xml:space="preserve" text-anchor="middle" x="936" y="-29.32" font-family="monospace" font-size="14.00">EXIT</text>
</g>
<!-- f1_n3&#45;&gt;f1_n4 -->
<g id="edge7" class="edge">
<title>f1_n3&#45;&gt;f1_n4</title>
<path fill="none" stroke="black" d="M936,-104.05C936,-89.25 936,-75.2 936,-63.69"/>
<polygon fill="black" stroke="black" points="939.5,-63.79 936,-53.79 932.5,-63.79 939.5,-63.79"/>
<text xml:space="preserve" text-anchor="middle" x="955.88" y="-73.2" font-family="Times,serif" font-size="14.00">uncond</text>
</g>
</g>
</svg>
