<?xml version="1.0" encoding="UTF-8" standalone="no"?>
<!DOCTYPE svg PUBLIC "-//W3C//DTD SVG 1.1//EN"
 "http://www.w3.org/Graphics/SVG/1.1/DTD/svg11.dtd">
<!-- Generated by graphviz version 13.1.0 (20250701.0955)
 -->
<!-- Pages: 1 -->
<svg width="1765pt" height="673pt"
 viewBox="0.00 0.00 1765.00 673.00" xmlns="http://www.w3.org/2000/svg" xmlns:xlink="http://www.w3.org/1999/xlink">
<g id="graph0" class="graph" transform="scale(1 1) rotate(0) translate(4 669.25)">
<polygon fill="white" stroke="none" points="-4,4 -4,-669.25 1761,-669.25 1761,4 -4,4"/>
<g id="clust1" class="cluster">
<title>cluster_function_0</title>
<polygon fill="lightgrey" stroke="lightgrey" points="8,-239.38 8,-657.25 1040,-657.25 1040,-239.38 8,-239.38"/>
<text xml:space="preserve" text-anchor="middle" x="524" y="-639.95" font-family="Times,serif" font-size="14.00">Function 0</text>
</g>
<g id="clust2" class="cluster">
<title>cluster_function_1</title>
<polygon fill="lightgrey" stroke="lightgrey" points="1048,-8 1048,-648.62 1749,-648.62 1749,-8 1048,-8"/>
<text xml:space="preserve" text-anchor="middle" x="1398.5" y="-631.33" font-family="Times,serif" font-size="14.00">Function 1</text>
</g>
<!-- f0_n0 -->
<g id="node1" class="node">
<title>f0_n0</title>
<polygon fill="none" stroke="black" points="411.75,-624.75 16.25,-624.75 16.25,-496 411.75,-496 411.75,-624.75"/>
<text xml:space="preserve" text-anchor="start" x="24.25" y="-607.45" font-family="monospace" font-size="14.00">Block 0 (PC 0&#45;6)</text>
<text xml:space="preserve" text-anchor="start" x="24.25" y="-590.2" font-family="monospace" font-size="14.00"> &#160;0: DeclareGlobalVar &#160;&quot;main&quot;</text>
<text xml:space="preserve" text-anchor="start" x="24.25" y="-572.95" font-family="monospace" font-size="14.00"> &#160;1: CreateEnvironment r1</text>
<text xml:space="preserve" text-anchor="start" x="24.25" y="-555.7" font-family="monospace" font-size="14.00"> &#160;2: CreateClosure &#160;&#160;&#160;&#160;r2, r1, Function&lt;main&gt;1</text>
<text xml:space="preserve" text-anchor="start" x="24.25" y="-538.45" font-family="monospace" font-size="14.00"> &#160;3: GetGlobalObject &#160;&#160;r0</text>
<text xml:space="preserve" text-anchor="start" x="24.25" y="-521.2" font-family="monospace" font-size="14.00"> &#160;4: PutById &#160;&#160;&#160;&#160;&#160;&#160;&#160;&#160;&#160;&#160;r0, r2, 1, &quot;main&quot;</text>
<text xml:space="preserve" text-anchor="start" x="24.25" y="-503.95" font-family="monospace" font-size="14.00"> &#160;5: NewArrayWithBuffer r0, 360, 360, 0</text>
</g>
<!-- f0_n1 -->
<g id="node2" class="node">
<title>f0_n1</title>
<polygon fill="none" stroke="black" points="402.12,-451.38 113.88,-451.38 113.88,-408.88 402.12,-408.88 402.12,-451.38"/>
<text xml:space="preserve" text-anchor="start" x="121.88" y="-434.07" font-family="monospace" font-size="14.00">Block 1 (PC 6&#45;7)</text>
<text xml:space="preserve" text-anchor="start" x="121.88" y="-416.82" font-family="monospace" font-size="14.00"> &#160;0: StoreToEnvironment r1, 0, r0</text>
</g>
<!-- f0_n0&#45;&gt;f0_n1 -->
<g id="edge1" class="edge">
<title>f0_n0&#45;&gt;f0_n1</title>
<path fill="none" stroke="black" d="M235.87,-495.63C239.85,-484.02 243.84,-472.41 247.31,-462.29"/>
<polygon fill="black" stroke="black" points="250.55,-463.62 250.49,-453.02 243.93,-461.34 250.55,-463.62"/>
</g>
<!-- f0_n6 -->
<g id="node7" class="node">
<title>f0_n6</title>
<polygon fill="none" stroke="black" points="634,-283.38 580,-283.38 580,-247.38 634,-247.38 634,-283.38"/>
<text xml:space="preserve" text-anchor="middle" x="607" y="-260.7" font-family="monospace" font-size="14.00">EXIT</text>
</g>
<!-- f0_n1&#45;&gt;f0_n6 -->
<g id="edge2" class="edge">
<title>f0_n1&#45;&gt;f0_n6</title>
<path fill="none" stroke="black" d="M302.2,-408.51C371.53,-376.18 504.6,-314.13 569.52,-283.85"/>
<polygon fill="black" stroke="black" points="570.75,-287.14 578.34,-279.74 567.79,-280.8 570.75,-287.14"/>
</g>
<!-- f0_n2 -->
<g id="node3" class="node">
<title>f0_n2</title>
<polygon fill="none" stroke="black" points="784.12,-581.62 429.88,-581.62 429.88,-539.12 784.12,-539.12 784.12,-581.62"/>
<text xml:space="preserve" text-anchor="start" x="437.88" y="-564.33" font-family="monospace" font-size="14.00">Block 2 (PC 7&#45;8)</text>
<text xml:space="preserve" text-anchor="start" x="437.88" y="-547.08" font-family="monospace" font-size="14.00"> &#160;0: NewObjectWithBuffer r0, 12, 12, 0, 0</text>
</g>
<!-- f0_n3 -->
<g id="node4" class="node">
<title>f0_n3</title>
<polygon fill="none" stroke="black" points="751.12,-451.38 462.88,-451.38 462.88,-408.88 751.12,-408.88 751.12,-451.38"/>
<text xml:space="preserve" text-anchor="start" x="470.88" y="-434.07" font-family="monospace" font-size="14.00">Block 3 (PC 8&#45;9)</text>
<text xml:space="preserve" text-anchor="start" x="470.88" y="-416.82" font-family="monospace" font-size="14.00"> &#160;0: StoreToEnvironment r1, 1, r0</text>
</g>
<!-- f0_n2&#45;&gt;f0_n3 -->
<g id="edge3" class="edge">
<title>f0_n2&#45;&gt;f0_n3</title>
<path fill="none" stroke="black" d="M607,-538.77C607,-518.3 607,-486.62 607,-462.92"/>
<polygon fill="black" stroke="black" points="610.5,-463.19 607,-453.19 603.5,-463.19 610.5,-463.19"/>
</g>
<!-- f0_n3&#45;&gt;f0_n6 -->
<g id="edge4" class="edge">
<title>f0_n3&#45;&gt;f0_n6</title>
<path fill="none" stroke="black" d="M607,-408.51C607,-379.84 607,-327.8 607,-295.27"/>
<polygon fill="black" stroke="black" points="610.5,-295.36 607,-285.36 603.5,-295.36 610.5,-295.36"/>
</g>
<!-- f0_n4 -->
<g id="node5" class="node">
<title>f0_n4</title>
<polygon fill="none" stroke="black" points="1032.25,-581.62 801.75,-581.62 801.75,-539.12 1032.25,-539.12 1032.25,-581.62"/>
<text xml:space="preserve" text-anchor="start" x="809.75" y="-564.33" font-family="monospace" font-size="14.00">Block 4 (PC 9&#45;10)</text>
<text xml:space="preserve" text-anchor="start" x="809.75" y="-547.08" font-family="monospace" font-size="14.00"> &#160;0: LoadConstUndefined r0</text>
</g>
<!-- f0_n5 -->
<g id="node6" class="node">
<title>f0_n5</title>
<polygon fill="none" stroke="black" points="1009.12,-451.38 786.88,-451.38 786.88,-408.88 1009.12,-408.88 1009.12,-451.38"/>
<text xml:space="preserve" text-anchor="start" x="794.88" y="-434.07" font-family="monospace" font-size="14.00">Block 5 (PC 10&#45;11)</text>
<text xml:space="preserve" text-anchor="start" x="794.88" y="-416.82" font-family="monospace" font-size="14.00"> &#160;0: Ret &#160;&#160;&#160;&#160;&#160;&#160;&#160;&#160;&#160;&#160;&#160;&#160;&#160;&#160;r0</text>
</g>
<!-- f0_n4&#45;&gt;f0_n5 -->
<g id="edge5" class="edge">
<title>f0_n4&#45;&gt;f0_n5</title>
<path fill="none" stroke="black" d="M913.95,-538.77C910.91,-518.3 906.22,-486.62 902.71,-462.92"/>
<polygon fill="black" stroke="black" points="906.19,-462.56 901.27,-453.18 899.27,-463.58 906.19,-462.56"/>
</g>
<!-- f0_n5&#45;&gt;f0_n6 -->
<g id="edge6" class="edge">
<title>f0_n5&#45;&gt;f0_n6</title>
<path fill="none" stroke="black" d="M861.14,-408.51C805.43,-377.35 700.32,-318.57 644.33,-287.25"/>
<polygon fill="black" stroke="black" points="646.22,-284.3 635.79,-282.47 642.8,-290.41 646.22,-284.3"/>
</g>
<!-- f1_n0 -->
<g id="node8" class="node">
<title>f1_n0</title>
<polygon fill="none" stroke="black" points="1574.75,-616.12 1245.25,-616.12 1245.25,-504.62 1574.75,-504.62 1574.75,-616.12"/>
<text xml:space="preserve" text-anchor="start" x="1253.25" y="-598.83" font-family="monospace" font-size="14.00">Block 0 (PC 0&#45;5)</text>
<text xml:space="preserve" text-anchor="start" x="1253.25" y="-581.58" font-family="monospace" font-size="14.00"> &#160;0: LoadConstString &#160;&#160;r6, &quot;_modified&quot;</text>
<text xml:space="preserve" text-anchor="start" x="1253.25" y="-564.33" font-family="monospace" font-size="14.00"> &#160;1: GetEnvironment &#160;&#160;&#160;r0, 0</text>
<text xml:space="preserve" text-anchor="start" x="1253.25" y="-547.08" font-family="monospace" font-size="14.00"> &#160;2: LoadFromEnvironment r4, r0, 1</text>
<text xml:space="preserve" text-anchor="start" x="1253.25" y="-529.83" font-family="monospace" font-size="14.00"> &#160;3: GetPNameList &#160;&#160;&#160;&#160;&#160;r5, r4, r3, r2</text>
<text xml:space="preserve" text-anchor="start" x="1253.25" y="-512.58" font-family="monospace" font-size="14.00"> &#160;4: JmpUndefined &#160;&#160;&#160;&#160;&#160;L1, r5</text>
</g>
<!-- f1_n1 -->
<g id="node9" class="node">
<title>f1_n1</title>
<polygon fill="none" stroke="black" points="1473.12,-460 1118.88,-460 1118.88,-400.25 1473.12,-400.25 1473.12,-460"/>
<text xml:space="preserve" text-anchor="start" x="1126.88" y="-442.7" font-family="monospace" font-size="14.00">Block 1 (PC 5&#45;7)</text>
<text xml:space="preserve" text-anchor="start" x="1126.88" y="-425.45" font-family="monospace" font-size="14.00"> &#160;0: GetNextPName &#160;&#160;&#160;&#160;&#160;r1, r5, r4, r3, r2</text>
<text xml:space="preserve" text-anchor="start" x="1126.88" y="-408.2" font-family="monospace" font-size="14.00"> &#160;1: JmpUndefined &#160;&#160;&#160;&#160;&#160;L1, r1</text>
</g>
<!-- f1_n0&#45;&gt;f1_n1 -->
<g id="edge8" class="edge">
<title>f1_n0&#45;&gt;f1_n1</title>
<path fill="none" stroke="black" d="M1360.99,-504.24C1350.42,-492.35 1339.48,-480.04 1329.65,-468.98"/>
<polygon fill="black" stroke="black" points="1332.3,-466.7 1323.04,-461.55 1327.07,-471.35 1332.3,-466.7"/>
</g>
<!-- f1_n3 -->
<g id="node11" class="node">
<title>f1_n3</title>
<polygon fill="none" stroke="black" points="1741.38,-364.25 1370.62,-364.25 1370.62,-166.5 1741.38,-166.5 1741.38,-364.25"/>
<text xml:space="preserve" text-anchor="start" x="1378.62" y="-346.95" font-family="monospace" font-size="14.00">Block 3 (PC 13&#45;23)</text>
<text xml:space="preserve" text-anchor="start" x="1378.62" y="-329.7" font-family="monospace" font-size="14.00"> &#160;0: GetGlobalObject &#160;&#160;r1</text>
<text xml:space="preserve" text-anchor="start" x="1378.62" y="-312.45" font-family="monospace" font-size="14.00"> &#160;1: TryGetById &#160;&#160;&#160;&#160;&#160;&#160;&#160;r4, r1, 1, &quot;console&quot;</text>
<text xml:space="preserve" text-anchor="start" x="1378.62" y="-295.2" font-family="monospace" font-size="14.00"> &#160;2: GetByIdShort &#160;&#160;&#160;&#160;&#160;r3, r4, 2, &quot;log&quot;</text>
<text xml:space="preserve" text-anchor="start" x="1378.62" y="-277.95" font-family="monospace" font-size="14.00"> &#160;3: LoadFromEnvironment r2, r0, 0</text>
<text xml:space="preserve" text-anchor="start" x="1378.62" y="-260.7" font-family="monospace" font-size="14.00"> &#160;4: Call2 &#160;&#160;&#160;&#160;&#160;&#160;&#160;&#160;&#160;&#160;&#160;&#160;r2, r3, r4, r2</text>
<text xml:space="preserve" text-anchor="start" x="1378.62" y="-243.45" font-family="monospace" font-size="14.00"> &#160;5: TryGetById &#160;&#160;&#160;&#160;&#160;&#160;&#160;r2, r1, 1, &quot;console&quot;</text>
<text xml:space="preserve" text-anchor="start" x="1378.62" y="-226.2" font-family="monospace" font-size="14.00"> &#160;6: GetByIdShort &#160;&#160;&#160;&#160;&#160;r1, r2, 2, &quot;log&quot;</text>
<text xml:space="preserve" text-anchor="start" x="1378.62" y="-208.95" font-family="monospace" font-size="14.00"> &#160;7: LoadFromEnvironment r0, r0, 1</text>
<text xml:space="preserve" text-anchor="start" x="1378.62" y="-191.7" font-family="monospace" font-size="14.00"> &#160;8: Call2 &#160;&#160;&#160;&#160;&#160;&#160;&#160;&#160;&#160;&#160;&#160;&#160;r0, r1, r2, r0</text>
<text xml:space="preserve" text-anchor="start" x="1378.62" y="-174.45" font-family="monospace" font-size="14.00"> &#160;9: LoadConstUndefined r0</text>
</g>
<!-- f1_n0&#45;&gt;f1_n3 -->
<g id="edge7" class="edge">
<title>f1_n0&#45;&gt;f1_n3</title>
<path fill="none" stroke="black" d="M1453.8,-504.3C1463.82,-490.32 1473.89,-474.99 1482,-460 1496.35,-433.48 1509.24,-403.57 1520.08,-375.34"/>
<polygon fill="black" stroke="black" points="1523.34,-376.62 1523.6,-366.03 1516.79,-374.15 1523.34,-376.62"/>
</g>
<!-- f1_n2 -->
<g id="node10" class="node">
<title>f1_n2</title>
<polygon fill="none" stroke="black" points="1352.25,-329.75 1055.75,-329.75 1055.75,-201 1352.25,-201 1352.25,-329.75"/>
<text xml:space="preserve" text-anchor="start" x="1063.75" y="-312.45" font-family="monospace" font-size="14.00">Block 2 (PC 7&#45;13)</text>
<text xml:space="preserve" text-anchor="start" x="1063.75" y="-295.2" font-family="monospace" font-size="14.00"> &#160;0: Mov &#160;&#160;&#160;&#160;&#160;&#160;&#160;&#160;&#160;&#160;&#160;&#160;&#160;&#160;r9, r1</text>
<text xml:space="preserve" text-anchor="start" x="1063.75" y="-277.95" font-family="monospace" font-size="14.00"> &#160;1: LoadFromEnvironment r8, r0, 1</text>
<text xml:space="preserve" text-anchor="start" x="1063.75" y="-260.7" font-family="monospace" font-size="14.00"> &#160;2: GetByVal &#160;&#160;&#160;&#160;&#160;&#160;&#160;&#160;&#160;r7, r8, r9</text>
<text xml:space="preserve" text-anchor="start" x="1063.75" y="-243.45" font-family="monospace" font-size="14.00"> &#160;3: Add &#160;&#160;&#160;&#160;&#160;&#160;&#160;&#160;&#160;&#160;&#160;&#160;&#160;&#160;r7, r7, r6</text>
<text xml:space="preserve" text-anchor="start" x="1063.75" y="-226.2" font-family="monospace" font-size="14.00"> &#160;4: PutByVal &#160;&#160;&#160;&#160;&#160;&#160;&#160;&#160;&#160;r8, r9, r7</text>
<text xml:space="preserve" text-anchor="start" x="1063.75" y="-208.95" font-family="monospace" font-size="14.00"> &#160;5: Jmp &#160;&#160;&#160;&#160;&#160;&#160;&#160;&#160;&#160;&#160;&#160;&#160;&#160;&#160;L2</text>
</g>
<!-- f1_n1&#45;&gt;f1_n2 -->
<g id="edge10" class="edge">
<title>f1_n1&#45;&gt;f1_n2</title>
<path fill="none" stroke="black" d="M1274.24,-400.03C1263.64,-383.22 1250.75,-361.24 1238.89,-339.98"/>
<polygon fill="black" stroke="black" points="1241.97,-338.33 1234.07,-331.28 1235.85,-341.72 1241.97,-338.33"/>
</g>
<!-- f1_n1&#45;&gt;f1_n3 -->
<g id="edge9" class="edge">
<title>f1_n1&#45;&gt;f1_n3</title>
<path fill="none" stroke="black" d="M1342.78,-399.84C1356.6,-391.19 1372.58,-381.19 1389.45,-370.63"/>
<polygon fill="black" stroke="black" points="1391.01,-373.78 1397.63,-365.51 1387.29,-367.85 1391.01,-373.78"/>
</g>
<!-- f1_n2&#45;&gt;f1_n1 -->
<g id="edge11" class="edge">
<title>f1_n2&#45;&gt;f1_n1</title>
<path fill="none" stroke="black" d="M1246.55,-329.96C1258.31,-350.18 1270.37,-371.95 1279.71,-389.92"/>
<polygon fill="black" stroke="black" points="1276.52,-391.37 1284.18,-398.68 1282.75,-388.18 1276.52,-391.37"/>
</g>
<!-- f1_n4 -->
<g id="node12" class="node">
<title>f1_n4</title>
<polygon fill="none" stroke="black" points="1667.12,-130.5 1444.88,-130.5 1444.88,-88 1667.12,-88 1667.12,-130.5"/>
<text xml:space="preserve" text-anchor="start" x="1452.88" y="-113.2" font-family="monospace" font-size="14.00">Block 4 (PC 23&#45;24)</text>
<text xml:space="preserve" text-anchor="start" x="1452.88" y="-95.95" font-family="monospace" font-size="14.00"> &#160;0: Ret &#160;&#160;&#160;&#160;&#160;&#160;&#160;&#160;&#160;&#160;&#160;&#160;&#160;&#160;r0</text>
</g>
<!-- f1_n3&#45;&gt;f1_n4 -->
<g id="edge12" class="edge">
<title>f1_n3&#45;&gt;f1_n4</title>
<path fill="none" stroke="black" d="M1556,-166.33C1556,-157.81 1556,-149.66 1556,-142.34"/>
<polygon fill="black" stroke="black" points="1559.5,-142.41 1556,-132.41 1552.5,-142.41 1559.5,-142.41"/>
</g>
<!-- f1_n5 -->
<g id="node13" class="node">
<title>f1_n5</title>
<polygon fill="none" stroke="black" points="1583,-52 1529,-52 1529,-16 1583,-16 1583,-52"/>
<text xml:space="preserve" text-anchor="middle" x="1556" y="-29.32" font-family="monospace" font-size="14.00">EXIT</text>
</g>
<!-- f1_n4&#45;&gt;f1_n5 -->
<g id="edge13" class="edge">
<title>f1_n4&#45;&gt;f1_n5</title>
<path fill="none" stroke="black" d="M1556,-87.85C1556,-80.34 1556,-71.69 1556,-63.59"/>
<polygon fill="black" stroke="black" points="1559.5,-63.83 1556,-53.83 1552.5,-63.83 1559.5,-63.83"/>
</g>
</g>
</svg>
