<?xml version="1.0" encoding="UTF-8" standalone="no"?>
<!DOCTYPE svg PUBLIC "-//W3C//DTD SVG 1.1//EN"
 "http://www.w3.org/Graphics/SVG/1.1/DTD/svg11.dtd">
<!-- Generated by graphviz version 13.1.0 (20250701.0955)
 -->
<!-- Pages: 1 -->
<svg width="526pt" height="430pt"
 viewBox="0.00 0.00 526.00 430.00" xmlns="http://www.w3.org/2000/svg" xmlns:xlink="http://www.w3.org/1999/xlink">
<g id="graph0" class="graph" transform="scale(1 1) rotate(0) translate(4 426)">
<polygon fill="white" stroke="none" points="-4,4 -4,-426 522,-426 522,4 -4,4"/>
<g id="clust1" class="cluster">
<title>cluster_function_0</title>
<polygon fill="lightgrey" stroke="lightgrey" points="8,-8 8,-414 510,-414 510,-8 8,-8"/>
<text xml:space="preserve" text-anchor="middle" x="259" y="-396.7" font-family="Times,serif" font-size="14.00">Function 0</text>
</g>
<!-- f0_n0 -->
<g id="node1" class="node">
<title>f0_n0</title>
<polygon fill="none" stroke="black" points="502.12,-381.5 15.88,-381.5 15.88,-166.5 502.12,-166.5 502.12,-381.5"/>
<text xml:space="preserve" text-anchor="start" x="23.88" y="-364.2" font-family="monospace" font-size="14.00">Block 0 (PC 0&#45;11)</text>
<text xml:space="preserve" text-anchor="start" x="23.88" y="-346.95" font-family="monospace" font-size="14.00"> &#160;0: DeclareGlobalVar &#160;&quot;a&quot;</text>
<text xml:space="preserve" text-anchor="start" x="23.88" y="-329.7" font-family="monospace" font-size="14.00"> &#160;1: GetGlobalObject &#160;&#160;r0</text>
<text xml:space="preserve" text-anchor="start" x="23.88" y="-312.45" font-family="monospace" font-size="14.00"> &#160;2: TryGetById &#160;&#160;&#160;&#160;&#160;&#160;&#160;r3, r0, 1, &quot;BigInt&quot;</text>
<text xml:space="preserve" text-anchor="start" x="23.88" y="-295.2" font-family="monospace" font-size="14.00"> &#160;3: LoadConstUndefined r2</text>
<text xml:space="preserve" text-anchor="start" x="23.88" y="-277.95" font-family="monospace" font-size="14.00"> &#160;4: LoadConstBigInt &#160;&#160;r1, 123456789012345678901234567890</text>
<text xml:space="preserve" text-anchor="start" x="23.88" y="-260.7" font-family="monospace" font-size="14.00"> &#160;5: Call2 &#160;&#160;&#160;&#160;&#160;&#160;&#160;&#160;&#160;&#160;&#160;&#160;r1, r3, r2, r1</text>
<text xml:space="preserve" text-anchor="start" x="23.88" y="-243.45" font-family="monospace" font-size="14.00"> &#160;6: PutById &#160;&#160;&#160;&#160;&#160;&#160;&#160;&#160;&#160;&#160;r0, r1, 1, &quot;a&quot;</text>
<text xml:space="preserve" text-anchor="start" x="23.88" y="-226.2" font-family="monospace" font-size="14.00"> &#160;7: TryGetById &#160;&#160;&#160;&#160;&#160;&#160;&#160;r2, r0, 2, &quot;console&quot;</text>
<text xml:space="preserve" text-anchor="start" x="23.88" y="-208.95" font-family="monospace" font-size="14.00"> &#160;8: GetByIdShort &#160;&#160;&#160;&#160;&#160;r1, r2, 3, &quot;log&quot;</text>
<text xml:space="preserve" text-anchor="start" x="23.88" y="-191.7" font-family="monospace" font-size="14.00"> &#160;9: GetByIdShort &#160;&#160;&#160;&#160;&#160;r0, r0, 4, &quot;a&quot;</text>
<text xml:space="preserve" text-anchor="start" x="23.88" y="-174.45" font-family="monospace" font-size="14.00"> &#160;10: Call2 &#160;&#160;&#160;&#160;&#160;&#160;&#160;&#160;&#160;&#160;&#160;&#160;r0, r1, r2, r0</text>
</g>
<!-- f0_n1 -->
<g id="node2" class="node">
<title>f0_n1</title>
<polygon fill="none" stroke="black" points="370.12,-130.5 147.88,-130.5 147.88,-88 370.12,-88 370.12,-130.5"/>
<text xml:space="preserve" text-anchor="start" x="155.88" y="-113.2" font-family="monospace" font-size="14.00">Block 1 (PC 11&#45;12)</text>
<text xml:space="preserve" text-anchor="start" x="155.88" y="-95.95" font-family="monospace" font-size="14.00"> &#160;0: Ret &#160;&#160;&#160;&#160;&#160;&#160;&#160;&#160;&#160;&#160;&#160;&#160;&#160;&#160;r0</text>
</g>
<!-- f0_n0&#45;&gt;f0_n1 -->
<g id="edge1" class="edge">
<title>f0_n0&#45;&gt;f0_n1</title>
<path fill="none" stroke="black" d="M259,-166.26C259,-157.74 259,-149.63 259,-142.36"/>
<polygon fill="black" stroke="black" points="262.5,-142.51 259,-132.51 255.5,-142.51 262.5,-142.51"/>
</g>
<!-- f0_n2 -->
<g id="node3" class="node">
<title>f0_n2</title>
<polygon fill="none" stroke="black" points="286,-52 232,-52 232,-16 286,-16 286,-52"/>
<text xml:space="preserve" text-anchor="middle" x="259" y="-29.32" font-family="monospace" font-size="14.00">EXIT</text>
</g>
<!-- f0_n1&#45;&gt;f0_n2 -->
<g id="edge2" class="edge">
<title>f0_n1&#45;&gt;f0_n2</title>
<path fill="none" stroke="black" d="M259,-87.85C259,-80.34 259,-71.69 259,-63.59"/>
<polygon fill="black" stroke="black" points="262.5,-63.83 259,-53.83 255.5,-63.83 262.5,-63.83"/>
</g>
</g>
</svg>
