<?xml version="1.0" encoding="UTF-8" standalone="no"?>
<!DOCTYPE svg PUBLIC "-//W3C//DTD SVG 1.1//EN"
 "http://www.w3.org/Graphics/SVG/1.1/DTD/svg11.dtd">
<!-- Generated by graphviz version 13.1.0 (20250701.0955)
 -->
<!-- Pages: 1 -->
<svg width="716pt" height="298pt"
 viewBox="0.00 0.00 716.00 298.00" xmlns="http://www.w3.org/2000/svg" xmlns:xlink="http://www.w3.org/1999/xlink">
<g id="graph0" class="graph" transform="scale(1 1) rotate(0) translate(4 294.25)">
<polygon fill="white" stroke="none" points="-4,4 -4,-294.25 712,-294.25 712,4 -4,4"/>
<g id="clust1" class="cluster">
<title>cluster_function_0</title>
<polygon fill="lightgrey" stroke="lightgrey" points="8,-8 8,-282.25 420,-282.25 420,-8 8,-8"/>
<text xml:space="preserve" text-anchor="middle" x="214" y="-264.95" font-family="Times,serif" font-size="14.00">Function 0</text>
</g>
<g id="clust2" class="cluster">
<title>cluster_function_1</title>
<polygon fill="lightgrey" stroke="lightgrey" points="428,-8 428,-239.12 700,-239.12 700,-8 428,-8"/>
<text xml:space="preserve" text-anchor="middle" x="564" y="-221.82" font-family="Times,serif" font-size="14.00">Function 1</text>
</g>
<!-- f0_n0 -->
<g id="node1" class="node">
<title>f0_n0</title>
<polygon fill="none" stroke="black" points="411.75,-249.75 16.25,-249.75 16.25,-103.75 411.75,-103.75 411.75,-249.75"/>
<text xml:space="preserve" text-anchor="start" x="24.25" y="-232.45" font-family="monospace" font-size="14.00">Block 0 (PC 0&#45;7)</text>
<text xml:space="preserve" text-anchor="start" x="24.25" y="-215.2" font-family="monospace" font-size="14.00"> &#160;0: DeclareGlobalVar &#160;&quot;test&quot;</text>
<text xml:space="preserve" text-anchor="start" x="24.25" y="-197.95" font-family="monospace" font-size="14.00"> &#160;1: CreateEnvironment r0</text>
<text xml:space="preserve" text-anchor="start" x="24.25" y="-180.7" font-family="monospace" font-size="14.00"> &#160;2: CreateClosure &#160;&#160;&#160;&#160;r1, r0, Function&lt;test&gt;1</text>
<text xml:space="preserve" text-anchor="start" x="24.25" y="-163.45" font-family="monospace" font-size="14.00"> &#160;3: GetGlobalObject &#160;&#160;r0</text>
<text xml:space="preserve" text-anchor="start" x="24.25" y="-146.2" font-family="monospace" font-size="14.00"> &#160;4: PutById &#160;&#160;&#160;&#160;&#160;&#160;&#160;&#160;&#160;&#160;r0, r1, 1, &quot;test&quot;</text>
<text xml:space="preserve" text-anchor="start" x="24.25" y="-128.95" font-family="monospace" font-size="14.00"> &#160;5: LoadConstUndefined r0</text>
<text xml:space="preserve" text-anchor="start" x="24.25" y="-111.7" font-family="monospace" font-size="14.00"> &#160;6: Ret &#160;&#160;&#160;&#160;&#160;&#160;&#160;&#160;&#160;&#160;&#160;&#160;&#160;&#160;r0</text>
</g>
<!-- f0_n1 -->
<g id="node2" class="node">
<title>f0_n1</title>
<polygon fill="none" stroke="black" points="241,-52 187,-52 187,-16 241,-16 241,-52"/>
<text xml:space="preserve" text-anchor="middle" x="214" y="-29.32" font-family="monospace" font-size="14.00">EXIT</text>
</g>
<!-- f0_n0&#45;&gt;f0_n1 -->
<g id="edge1" class="edge">
<title>f0_n0&#45;&gt;f0_n1</title>
<path fill="none" stroke="black" d="M214,-103.31C214,-89.36 214,-75.52 214,-63.98"/>
<polygon fill="black" stroke="black" points="217.5,-63.99 214,-53.99 210.5,-63.99 217.5,-63.99"/>
<text xml:space="preserve" text-anchor="middle" x="237.25" y="-72.45" font-family="Arial" font-size="14.00">Uncond</text>
</g>
<!-- f1_n0 -->
<g id="node3" class="node">
<title>f1_n0</title>
<polygon fill="none" stroke="black" points="691.62,-206.62 436.38,-206.62 436.38,-146.88 691.62,-146.88 691.62,-206.62"/>
<text xml:space="preserve" text-anchor="start" x="444.38" y="-189.32" font-family="monospace" font-size="14.00">Block 0 (PC 0&#45;2)</text>
<text xml:space="preserve" text-anchor="start" x="444.38" y="-172.07" font-family="monospace" font-size="14.00"> &#160;0: LoadConstUInt8 &#160;&#160;&#160;r0, 52</text>
<text xml:space="preserve" text-anchor="start" x="444.38" y="-154.82" font-family="monospace" font-size="14.00"> &#160;1: Ret &#160;&#160;&#160;&#160;&#160;&#160;&#160;&#160;&#160;&#160;&#160;&#160;&#160;&#160;r0</text>
</g>
<!-- f1_n1 -->
<g id="node4" class="node">
<title>f1_n1</title>
<polygon fill="none" stroke="black" points="591,-52 537,-52 537,-16 591,-16 591,-52"/>
<text xml:space="preserve" text-anchor="middle" x="564" y="-29.32" font-family="monospace" font-size="14.00">EXIT</text>
</g>
<!-- f1_n0&#45;&gt;f1_n1 -->
<g id="edge2" class="edge">
<title>f1_n0&#45;&gt;f1_n1</title>
<path fill="none" stroke="black" d="M564,-146.59C564,-122.2 564,-87.63 564,-63.44"/>
<polygon fill="black" stroke="black" points="567.5,-63.69 564,-53.69 560.5,-63.69 567.5,-63.69"/>
<text xml:space="preserve" text-anchor="middle" x="587.25" y="-72.45" font-family="Arial" font-size="14.00">Uncond</text>
</g>
</g>
</svg>
